<svg xmlns="http://www.w3.org/2000/svg" width="101.03" height="86.324" viewBox="0 0 101.03 86.324">
  <g id="_097-elearning" data-name="097-elearning" transform="translate(-0.5 -9.75)">
    <path id="Path_52343" data-name="Path 52343" d="M33.19,46.886a.867.867,0,0,0,.4.1.9.9,0,0,0,.4-.1l10.109-5.838a.794.794,0,0,0,0-1.376l-10.1-5.83a.8.8,0,0,0-1.193.692V46.194A.8.8,0,0,0,33.19,46.886ZM34.383,35.91,42.1,40.364l-7.715,4.454Z" transform="translate(-6.611 -4.909)" fill="#3c9d3e"/>
    <path id="Path_52344" data-name="Path 52344" d="M49.824,62.73H43.136v-.644a.8.8,0,1,0-1.591,0v.644H17.685a.8.8,0,0,0,0,1.591h23.86v.636a.8.8,0,0,0,1.591,0V64.32h6.689a.8.8,0,0,0,0-1.591Z" transform="translate(-3.355 -10.549)" fill="#3c9d3e"/>
    <path id="Path_52345" data-name="Path 52345" d="M20.313,51.672H46.956a3.905,3.905,0,0,0,3.905-3.905V29.713A3.913,3.913,0,0,0,46.956,25.8H20.313A3.921,3.921,0,0,0,16.4,29.713V47.767a3.913,3.913,0,0,0,3.913,3.905ZM17.991,29.713a2.322,2.322,0,0,1,2.322-2.322H46.956a2.322,2.322,0,0,1,2.314,2.322V47.767a2.314,2.314,0,0,1-2.314,2.314H20.313a2.314,2.314,0,0,1-2.322-2.314Z" transform="translate(-3.254 -3.285)" fill="#3c9d3e"/>
    <path id="Path_52346" data-name="Path 52346" d="M.5,72.422a5.52,5.52,0,0,0,5.52,5.52H34.755L32.369,89.227H23.62a.8.8,0,0,0,0,1.591H42.072v4.43a.8.8,0,0,0,1.591,0V77.615A6.546,6.546,0,0,1,44.9,73.774a6.689,6.689,0,0,1,1.805-1.7L57.66,68.143a.8.8,0,0,0,.358.087H85.592l11.333,4.1A5.969,5.969,0,0,1,99.939,77.9V95.279a.8.8,0,0,0,1.591,0V77.869a7.392,7.392,0,0,0-3.921-6.975h-.1l-3.507-1.3V15.27a5.567,5.567,0,0,0-5.52-5.52H6.02A5.52,5.52,0,0,0,.5,15.27ZM33.967,89.227l2.386-11.286h5.663V89.227ZM59.195,66.64l1.933-4.517h21.3l1.933,4.517Zm7.412-7.794a14.8,14.8,0,0,1-6.6-8.47.8.8,0,0,0-.541-.517,3.309,3.309,0,0,1-2.386-3.181,3.4,3.4,0,0,1,.8-2.227c4.183,7.047,9.266,9.544,13.608,9.544a10.92,10.92,0,0,0,3.929-.716c.286-.1.8-.294,1.726-3.34,1.137,1.3,1.654,1.5,2.2,1.066a21.869,21.869,0,0,0,5.766-6.482,3.38,3.38,0,0,1,.8,2.124,3.309,3.309,0,0,1-2.386,3.181.8.8,0,0,0-.541.517,14.841,14.841,0,0,1-6.522,8.5.8.8,0,0,0-.406.692v.994H67.021v-.994a.8.8,0,0,0-.414-.692ZM84.1,42.939c-.938,2.68-3.674,5.186-5.265,6.458-.366-.366-.938-1.034-1.4-1.591a.8.8,0,0,0-1.384.286,21.856,21.856,0,0,1-1.32,3.778c-5.567,2.036-11.659-1.384-15.906-8.971a17,17,0,0,1-.668-5.011c0-8.192,5.877-14.61,13.385-14.61S84.932,29.7,84.932,37.889a16.948,16.948,0,0,1-.8,5.058ZM6.02,11.341H88.487a3.977,3.977,0,0,1,3.929,3.929V62.011H87.54a.8.8,0,0,0,0,1.591h4.875v5.416l-6.283-2.275-2.45-5.734a.8.8,0,0,0-.732-.477H77.607V60a16.511,16.511,0,0,0,6.8-8.749,4.971,4.971,0,0,0,1.4-8.359,18.292,18.292,0,0,0,.684-5.011c0-9.091-6.577-16.2-14.976-16.2S56.57,28.8,56.57,37.889a18.579,18.579,0,0,0,.684,5.011,4.979,4.979,0,0,0,1.4,8.359,16.487,16.487,0,0,0,6.808,8.749v.533H60.6a.8.8,0,0,0-.732.477L57.533,66.5,46.064,70.608a.525.525,0,0,0-.151.072,8.176,8.176,0,0,0-3.77,5.671H6.02a3.977,3.977,0,0,1-3.929-3.929V63.6h53.4a.8.8,0,1,0,0-1.591H2.091V15.27A3.977,3.977,0,0,1,6.02,11.341Z" transform="translate(0)" fill="#3c9d3e"/>
    <path id="Path_52347" data-name="Path 52347" d="M66.26,108.315v6.919a.8.8,0,0,0,1.591,0v-6.919a.8.8,0,0,0-1.591,0Z" transform="translate(-13.46 -20.011)" fill="#3c9d3e"/>
    <path id="Path_52348" data-name="Path 52348" d="M114.471,115.235v-6.919a.8.8,0,0,0-1.591,0v6.919a.8.8,0,0,0,1.591,0Z" transform="translate(-23.002 -20.011)" fill="#3c9d3e"/>
    <path id="Path_52349" data-name="Path 52349" d="M101.733,97.489a.8.8,0,0,0-1.129,0l-9.663,9.687a.793.793,0,0,0,1.121,1.121l9.671-9.655a.8.8,0,0,0,0-1.153Z" transform="translate(-18.464 -17.91)" fill="#3c9d3e"/>
    <path id="Path_52350" data-name="Path 52350" d="M100.921,106.369l-3.181,3.181a.793.793,0,1,0,1.121,1.121l3.181-3.181a.793.793,0,1,0-1.121-1.121Z" transform="translate(-19.854 -19.728)" fill="#3c9d3e"/>
  </g>
</svg>
