<svg id="Layer_x0020_1" xmlns="http://www.w3.org/2000/svg" width="86" height="72.026" viewBox="0 0 86 72.026">
  <g id="_323968616">
    <path id="_323969888" d="M7.212,5.4a5.34,5.34,0,0,0-5.335,5.334v57.6A5.341,5.341,0,0,0,7.212,73.67H78.787a5.342,5.342,0,0,0,5.335-5.335v-57.6A5.34,5.34,0,0,0,78.787,5.4H7.212ZM78.787,75.548H7.212A7.221,7.221,0,0,1,0,68.335v-57.6A7.22,7.22,0,0,1,7.212,3.522H78.787A7.221,7.221,0,0,1,86,10.733v57.6A7.222,7.222,0,0,1,78.787,75.548Z" transform="translate(0 -3.522)" fill="#3c9d3e"/>
    <path id="_323968856" d="M85.061,13.448H.939a.939.939,0,1,1,0-1.878H85.061a.939.939,0,0,1,0,1.878Z" transform="translate(0 4.397)" fill="#3c9d3e"/>
    <path id="_323969264" d="M27.057,7.842a2.2,2.2,0,1,0,2.2,2.2,2.2,2.2,0,0,0-2.2-2.2Zm0,6.274a4.076,4.076,0,1,1,4.076-4.076A4.081,4.081,0,0,1,27.057,14.117Z" transform="translate(22.611 -1.118)" fill="#3c9d3e"/>
    <path id="_323968760" d="M33.507,7.842a2.2,2.2,0,1,0,2.2,2.2,2.2,2.2,0,0,0-2.2-2.2Zm0,6.274a4.076,4.076,0,1,1,4.075-4.076A4.081,4.081,0,0,1,33.507,14.117Z" transform="translate(28.958 -1.118)" fill="#3c9d3e"/>
    <path id="_323968904" d="M39.958,7.842a2.2,2.2,0,1,0,2.2,2.2,2.2,2.2,0,0,0-2.2-2.2Zm0,6.274a4.076,4.076,0,1,1,4.076-4.076A4.081,4.081,0,0,1,39.958,14.117Z" transform="translate(35.304 -1.118)" fill="#3c9d3e"/>
    <path id="_323969216" d="M6.72,8.2a1.485,1.485,0,1,0,0,2.969h23.1a1.485,1.485,0,1,0,0-2.969Zm23.1,4.847H6.72a3.362,3.362,0,1,1,0-6.724h23.1a3.362,3.362,0,1,1,0,6.724Z" transform="translate(3.304 -0.764)" fill="#3c9d3e"/>
    <path id="_323968880" d="M12.565,16.817a7.716,7.716,0,1,0,7.716,7.716A7.725,7.725,0,0,0,12.565,16.817Zm0,17.309a9.593,9.593,0,1,1,9.594-9.593A9.6,9.6,0,0,1,12.565,34.126Z" transform="translate(2.923 7.712)" fill="#3c9d3e"/>
    <path id="_323969360" d="M16.927,25.471H8.273a.939.939,0,0,1-.939-.939V15.878a.939.939,0,1,1,1.878,0v7.716h7.716a.939.939,0,1,1,0,1.878Z" transform="translate(7.216 7.712)" fill="#3c9d3e"/>
    <path id="_323969432" d="M21.22,28.5H3.91a.939.939,0,1,1,0-1.878H21.22a.939.939,0,1,1,0,1.878Z" transform="translate(2.923 19.211)" fill="#3c9d3e"/>
    <path id="_323969048" d="M21.22,31.466H3.91a.939.939,0,1,1,0-1.878H21.22a.939.939,0,1,1,0,1.878Z" transform="translate(2.923 22.124)" fill="#3c9d3e"/>
    <path id="_323968928" d="M21.22,34.428H3.91a.939.939,0,0,1,0-1.878H21.22a.939.939,0,0,1,0,1.878Z" transform="translate(2.923 25.039)" fill="#3c9d3e"/>
    <path id="_323968976" d="M21.22,37.39H3.91a.939.939,0,0,1,0-1.878H21.22a.939.939,0,1,1,0,1.878Z" transform="translate(2.923 27.953)" fill="#3c9d3e"/>
    <path id="_323968376" d="M15.606,67.629a.939.939,0,0,1-.939-.939V12.509a.939.939,0,0,1,1.878,0V66.69A.939.939,0,0,1,15.606,67.629Z" transform="translate(14.431 4.397)" fill="#3c9d3e"/>
    <path id="_323968304" d="M42.019,48.519a.939.939,0,0,1-.939-.939V32.871H36.746V47.58a.939.939,0,1,1-1.878,0V31.932a.939.939,0,0,1,.939-.939h6.212a.939.939,0,0,1,.939.939V47.58A.939.939,0,0,1,42.019,48.519Z" transform="translate(34.306 23.507)" fill="#3c9d3e"/>
    <path id="_323968664" d="M36.753,51.078a.939.939,0,0,1-.939-.939V30.27H31.48V50.139a.939.939,0,1,1-1.878,0V29.331a.938.938,0,0,1,.939-.939h6.212a.938.938,0,0,1,.939.939V50.139A.939.939,0,0,1,36.753,51.078Z" transform="translate(29.125 20.948)" fill="#3c9d3e"/>
    <path id="_323968232" d="M31.487,52.615a.939.939,0,0,1-.939-.939V28.708H26.214V51.676a.939.939,0,1,1-1.878,0V27.769a.939.939,0,0,1,.939-.939h6.212a.939.939,0,0,1,.939.939V51.676A.939.939,0,0,1,31.487,52.615Z" transform="translate(23.944 19.411)" fill="#3c9d3e"/>
    <path id="_323968280" d="M26.221,56.2a.939.939,0,0,1-.939-.939V25.067H20.948V55.259a.939.939,0,1,1-1.878,0V24.128a.939.939,0,0,1,.939-.939h6.212a.939.939,0,0,1,.939.939V55.259A.939.939,0,0,1,26.221,56.2Z" transform="translate(18.763 15.828)" fill="#3c9d3e"/>
    <path id="_323968184" d="M53.346,23.948H27.234a.939.939,0,1,1,0-1.878H53.346a.939.939,0,1,1,0,1.878Z" transform="translate(25.871 14.728)" fill="#3c9d3e"/>
    <path id="_323968136" d="M53.346,20.449H27.234a.939.939,0,0,1,0-1.878H53.346a.939.939,0,1,1,0,1.878Z" transform="translate(25.871 11.285)" fill="#3c9d3e"/>
    <path id="_323968568" d="M53.346,16.949H27.234a.939.939,0,0,1,0-1.878H53.346a.939.939,0,0,1,0,1.878Z" transform="translate(25.871 7.842)" fill="#3c9d3e"/>
  </g>
</svg>
