<svg xmlns="http://www.w3.org/2000/svg" width="88.866" height="92.026" viewBox="0 0 88.866 92.026">
  <g id="_091-test" data-name="091-test" transform="translate(-2.689 -0.529)">
    <path id="Path_52229" data-name="Path 52229" d="M34.885,94.74a.725.725,0,0,0-.725.725v9.879a.725.725,0,0,0,.725.725H80.836a.725.725,0,0,0,.507-.21l1.834-1.834H99.492a.725.725,0,0,0,.725-.725V50.355a.725.725,0,0,0-1.45,0v52.228H84.619l11.1-11.1a.776.776,0,0,0,.138-.2V91.2a.8.8,0,0,0,.043-.188v-19.1a.725.725,0,0,0-1.45,0v18.33H80.836a.725.725,0,0,0-.725.725v13.648H35.61V95.465a.725.725,0,0,0-.725-.725ZM81.561,91.7H93.476L81.561,103.6Z" transform="translate(-8.661 -13.513)" fill="#3c9d3e"/>
    <path id="Path_52230" data-name="Path 52230" d="M46.932,91.825h5.385a2.819,2.819,0,0,0,2.819-2.819V83.649a2.819,2.819,0,0,0-2.819-2.819H46.932a2.819,2.819,0,0,0-2.812,2.819v5.385A2.819,2.819,0,0,0,46.932,91.825ZM45.57,83.649a1.37,1.37,0,0,1,1.363-1.37h5.385a1.37,1.37,0,0,1,1.37,1.37v5.385a1.37,1.37,0,0,1-1.37,1.341H46.932a1.37,1.37,0,0,1-1.363-1.37Z" transform="translate(-11.403 -22.1)" fill="#3c9d3e"/>
    <path id="Path_52231" data-name="Path 52231" d="M44.12,110.286a2.819,2.819,0,0,0,2.812,2.819h5.385a2.819,2.819,0,0,0,2.819-2.819v-5.356a2.819,2.819,0,0,0-2.819-2.819H46.932a2.819,2.819,0,0,0-2.812,2.819Zm1.45-5.385a1.37,1.37,0,0,1,1.363-1.37h5.385a1.37,1.37,0,0,1,1.37,1.4v5.385a1.37,1.37,0,0,1-1.37,1.37H46.932a1.37,1.37,0,0,1-1.363-1.37Z" transform="translate(-11.403 -27.957)" fill="#3c9d3e"/>
    <path id="Path_52232" data-name="Path 52232" d="M66,84.275a.725.725,0,0,0,.725.725H85.569a.725.725,0,0,0,0-1.45H66.725A.725.725,0,0,0,66,84.275Z" transform="translate(-17.424 -22.849)" fill="#3c9d3e"/>
    <path id="Path_52233" data-name="Path 52233" d="M66.725,92.77h15a.725.725,0,0,0,0-1.45h-15a.725.725,0,0,0,0,1.45Z" transform="translate(-17.424 -24.987)" fill="#3c9d3e"/>
    <path id="Path_52234" data-name="Path 52234" d="M66.725,88.89H92.65a.725.725,0,0,0,0-1.45H66.725a.725.725,0,0,0,0,1.45Z" transform="translate(-17.424 -23.92)" fill="#3c9d3e"/>
    <path id="Path_52235" data-name="Path 52235" d="M66.725,106.24h7.248a.725.725,0,1,0,0-1.45H66.725a.725.725,0,0,0,0,1.45Z" transform="translate(-17.424 -28.695)" fill="#3c9d3e"/>
    <path id="Path_52236" data-name="Path 52236" d="M66.725,114.01h15a.725.725,0,0,0,0-1.45h-15a.725.725,0,0,0,0,1.45Z" transform="translate(-17.424 -30.833)" fill="#3c9d3e"/>
    <path id="Path_52237" data-name="Path 52237" d="M66.725,110.12h15a.725.725,0,0,0,0-1.45h-15a.725.725,0,0,0,0,1.45Z" transform="translate(-17.424 -29.762)" fill="#3c9d3e"/>
    <path id="Path_52238" data-name="Path 52238" d="M124.75,28.255a.725.725,0,1,0-1.45,0v9.632a.725.725,0,1,0,1.45,0Z" transform="translate(-33.195 -7.431)" fill="#3c9d3e"/>
    <path id="Path_52239" data-name="Path 52239" d="M25.5,54.135V76.443a.725.725,0,0,0,1.45,0V54.323c.891.087,1.8.138,2.725.138A26.955,26.955,0,0,0,50.75,10.72H85.793V50.88a.725.725,0,0,0,1.45,0V10a.725.725,0,0,0-.725-.725H49.554A26.622,26.622,0,0,0,46.6,6.5H90.091v9.951a.725.725,0,1,0,1.45,0V5.8a.725.725,0,0,0-.725-.725h-46.2a26.962,26.962,0,0,0-27.8-1.3.734.734,0,0,0,.725,1.276,25.541,25.541,0,1,1-5.929,4.392A.725.725,0,1,0,10.59,8.408,26.976,26.976,0,0,0,25.5,54.135Z" transform="translate(0 0)" fill="#3c9d3e"/>
    <path id="Path_52240" data-name="Path 52240" d="M24.875,48.674a.725.725,0,0,0,.457.913,20.678,20.678,0,0,0,6.653,1.087,20.9,20.9,0,1,0-12-3.791.726.726,0,1,0,.833-1.189A19.3,19.3,0,1,1,25.8,48.217a.725.725,0,0,0-.92.457Z" transform="translate(-2.312 -2.294)" fill="#3c9d3e"/>
    <path id="Path_52241" data-name="Path 52241" d="M96.062,40.806a8.487,8.487,0,1,0-9.212-8.451.725.725,0,0,0,1.45,0,7.038,7.038,0,1,1,7.038,7.038.725.725,0,0,0-.725.725v8.176a.725.725,0,0,0,1.45,0Z" transform="translate(-23.163 -6.422)" fill="#3c9d3e"/>
    <path id="Path_52242" data-name="Path 52242" d="M97.77,61.809a.725.725,0,1,0,.515-.214A.725.725,0,0,0,97.77,61.809Z" transform="translate(-26.11 -16.806)" fill="#3c9d3e"/>
    <path id="Path_52243" data-name="Path 52243" d="M40.968,19.9a.723.723,0,0,0,1.022-1.022l-2.9-2.9a.737.737,0,0,0-1.1.08l-2.9,2.9a.723.723,0,0,0,1.022,1.022l1.718-1.71V28.345a3.414,3.414,0,0,0,.725,6.748,3.363,3.363,0,0,0,2-.681l3.551,3.551H41.7a.725.725,0,1,0,0,1.45h4.138a.736.736,0,0,0,.725-.725V34.476a.725.725,0,0,0-1.45,0v2.479L41.49,33.331a3.276,3.276,0,0,0,.457-1.638,3.479,3.479,0,0,0-2.689-3.334V18.212ZM40.5,31.679a1.971,1.971,0,1,1-1.964-1.971A1.971,1.971,0,0,1,40.5,31.679Z" transform="translate(-8.859 -4.194)" fill="#3c9d3e"/>
    <path id="Path_52244" data-name="Path 52244" d="M38.92,57.725v1.6a.725.725,0,0,0,1.45,0v-1.6a.725.725,0,0,0-1.45,0Z" transform="translate(-9.971 -15.542)" fill="#3c9d3e"/>
    <path id="Path_52245" data-name="Path 52245" d="M53.311,51.842l1.45,1.45A.725.725,0,0,0,55.79,52.27l-1.45-1.45a.725.725,0,0,0-1.029,1.022Z" transform="translate(-13.875 -13.783)" fill="#3c9d3e"/>
    <path id="Path_52246" data-name="Path 52246" d="M25.285,23.519A.725.725,0,0,0,25.8,22.28l-1.45-1.45a.725.725,0,1,0-1.022,1.029l1.45,1.45A.725.725,0,0,0,25.285,23.519Z" transform="translate(-5.621 -5.529)" fill="#3c9d3e"/>
    <path id="Path_52247" data-name="Path 52247" d="M54.809,25a.725.725,0,0,0,.515-.21l1.45-1.45a.723.723,0,1,0-1.022-1.022L54.3,23.77A.725.725,0,0,0,54.816,25Z" transform="translate(-14.148 -5.939)" fill="#3c9d3e"/>
    <path id="Path_52248" data-name="Path 52248" d="M24.847,54.962a.725.725,0,0,0,.515-.21l1.45-1.45A.723.723,0,0,0,25.79,52.28l-1.45,1.45a.721.721,0,0,0,.507,1.232Z" transform="translate(-5.901 -14.185)" fill="#3c9d3e"/>
    <path id="Path_52249" data-name="Path 52249" d="M59.412,38.45h2.022a.725.725,0,1,0,0-1.45H59.4a.725.725,0,1,0,0,1.45Z" transform="translate(-15.41 -10.037)" fill="#3c9d3e"/>
    <path id="Path_52250" data-name="Path 52250" d="M18.475,37.06a.725.725,0,1,0,0,1.45H20.5a.725.725,0,1,0,0-1.45Z" transform="translate(-4.145 -10.054)" fill="#3c9d3e"/>
  </g>
</svg>
