<svg xmlns="http://www.w3.org/2000/svg" width="92.294" height="74.625" viewBox="0 0 92.294 74.625">
  <g id="_031-diploma" data-name="031-diploma" transform="translate(-0.55 -12.722)">
    <path id="Path_51416" data-name="Path 51416" d="M92.841,13.208a.6.6,0,0,0,0-.109.364.364,0,0,0-.058-.087.655.655,0,0,0-.1-.145l-.095-.051a.887.887,0,0,0-.138-.087.567.567,0,0,0-.16,0,.422.422,0,0,0-.1,0H.979a1.542,1.542,0,0,0-.145.087.107.107,0,0,0-.087.051.836.836,0,0,0-.1.138.662.662,0,0,0-.058.095.6.6,0,0,0,0,.109,1.375,1.375,0,0,0-.036.167v67a1.127,1.127,0,0,0,.036.167.684.684,0,0,0,0,.116.6.6,0,0,0,.058.087.487.487,0,0,0,.1.138h0l.116.073a.545.545,0,0,0,.109.065.684.684,0,0,0,.269.051H64.877v5.549a.714.714,0,0,0,1.12.6L70.368,84.2,74.6,87.186a.714.714,0,0,0,1.12-.6V81.113H92.15a.684.684,0,0,0,.269-.051A.546.546,0,0,0,92.528,81l.116-.073a.487.487,0,0,0,.1-.138A.6.6,0,0,0,92.8,80.7a.685.685,0,0,0,0-.116,1.376,1.376,0,0,0,0-.167V13.375a1.373,1.373,0,0,0,.036-.167Zm-7.113,59.1V21.448l5.695-6.189V78.532ZM64.274,59.717a6.051,6.051,0,1,1,6.051,6.051A6.051,6.051,0,0,1,64.274,59.717ZM75.743,69.746a12.305,12.305,0,0,0,3.942-3.68.727.727,0,1,0-1.207-.778,10.793,10.793,0,0,1-2.735,2.778V64.9a7.505,7.505,0,1,0-10.836,0v2.851a9.685,9.685,0,1,1,15.076-8.029.727.727,0,1,0,1.455,0,11.142,11.142,0,1,0-16.56,9.731v2.385H9.117V21.892H84.274V71.833H75.743ZM8.71,20.437l-5.818-6.32h87.6l-5.818,6.32ZM7.663,21.448V72.306L1.968,78.5V15.23ZM2.9,79.63l5.818-6.32h56.16v6.32Zm67.884,3.055a.727.727,0,0,0-.836,0l-3.615,2.553V66.073a7.411,7.411,0,0,0,7.927,0V85.164Zm4.96-9.4h8.938l5.818,6.32H75.743Z" transform="translate(0 0)" fill="#3c9d3e"/>
    <path id="Path_51417" data-name="Path 51417" d="M43.046,42.553a.727.727,0,0,0,.422-.138c3.767-2.7,9.178-4.24,14.844-4.24s11.076,1.542,14.844,4.247A.728.728,0,0,0,74,41.236c-4.007-2.909-9.724-4.516-15.687-4.516s-11.687,1.658-15.695,4.516a.727.727,0,0,0,.429,1.316Z" transform="translate(-11.391 -6.545)" fill="#3c9d3e"/>
    <path id="Path_51418" data-name="Path 51418" d="M53.417,44.9a.727.727,0,1,0,0,1.455h15.44a.727.727,0,0,0,0-1.455Z" transform="translate(-14.22 -8.776)" fill="#3c9d3e"/>
    <path id="Path_51419" data-name="Path 51419" d="M86.255,54.65H76.647a.727.727,0,0,0,0,1.455h9.607a.727.727,0,0,0,0-1.455Z" transform="translate(-20.555 -11.435)" fill="#3c9d3e"/>
    <path id="Path_51420" data-name="Path 51420" d="M35.527,56.1H60.822a.727.727,0,1,0,0-1.455H35.527a.727.727,0,0,0,0,1.455Z" transform="translate(-9.341 -11.435)" fill="#3c9d3e"/>
    <path id="Path_51421" data-name="Path 51421" d="M35.527,63.455H48.175a.727.727,0,0,0,0-1.455H35.527a.727.727,0,1,0,0,1.455Z" transform="translate(-9.341 -13.439)" fill="#3c9d3e"/>
    <path id="Path_51422" data-name="Path 51422" d="M59.377,62a.727.727,0,0,0,0,1.455h4.844a.727.727,0,0,0,0-1.455Z" transform="translate(-15.845 -13.439)" fill="#3c9d3e"/>
    <path id="Path_51423" data-name="Path 51423" d="M78.1,62H72.807a.727.727,0,0,0,0,1.455H78.1A.727.727,0,0,0,78.1,62Z" transform="translate(-19.508 -13.439)" fill="#3c9d3e"/>
    <path id="Path_51424" data-name="Path 51424" d="M99.984,77.067a.727.727,0,1,0-1.455,0,2.669,2.669,0,0,1-2.662,2.662.727.727,0,0,0,0,1.455,4.124,4.124,0,0,0,4.116-4.116Z" transform="translate(-25.797 -17.35)" fill="#3c9d3e"/>
    <path id="Path_51425" data-name="Path 51425" d="M97.8,89.56a.727.727,0,0,0-.727.727v2.422a.727.727,0,1,0,1.455,0V90.287A.727.727,0,0,0,97.8,89.56Z" transform="translate(-26.324 -20.956)" fill="#3c9d3e"/>
    <path id="Path_51426" data-name="Path 51426" d="M97.8,97.29a.727.727,0,0,0-.727.727v5.025a.727.727,0,0,0,1.455,0V98.017a.727.727,0,0,0-.727-.727Z" transform="translate(-26.324 -23.064)" fill="#3c9d3e"/>
    <path id="Path_51427" data-name="Path 51427" d="M35.527,71.375h6.916a.727.727,0,1,0,0-1.455H35.527a.727.727,0,1,0,0,1.455Z" transform="translate(-9.341 -15.599)" fill="#3c9d3e"/>
    <path id="Path_51428" data-name="Path 51428" d="M69.586,69.92H52.917a.727.727,0,1,0,0,1.455H69.586a.727.727,0,1,0,0-1.455Z" transform="translate(-14.084 -15.599)" fill="#3c9d3e"/>
    <path id="Path_51429" data-name="Path 51429" d="M62.535,78.14H35.567a.727.727,0,1,0,0,1.455H62.535a.727.727,0,1,0,0-1.455Z" transform="translate(-9.352 -17.841)" fill="#3c9d3e"/>
    <path id="Path_51430" data-name="Path 51430" d="M30.414,99.39H16.777a.727.727,0,1,0,0,1.455H30.414a.727.727,0,1,0,0-1.455Z" transform="translate(-4.227 -23.637)" fill="#3c9d3e"/>
    <path id="Path_51431" data-name="Path 51431" d="M45.724,99.39H42.087a.727.727,0,1,0,0,1.455h3.636a.727.727,0,1,0,0-1.455Z" transform="translate(-11.13 -23.637)" fill="#3c9d3e"/>
    <path id="Path_51432" data-name="Path 51432" d="M92.029,18H76.647a.727.727,0,0,0,0,1.455H92.029a.727.727,0,1,0,0-1.455Z" transform="translate(-20.555 -1.439)" fill="#3c9d3e"/>
    <path id="Path_51433" data-name="Path 51433" d="M108.341,18h-5a.727.727,0,0,0,0,1.455h5a.727.727,0,1,0,0-1.455Z" transform="translate(-27.834 -1.439)" fill="#3c9d3e"/>
    <path id="Path_51434" data-name="Path 51434" d="M121.317,36.72a.727.727,0,0,0-.727.727V69.964a.727.727,0,1,0,1.455,0V37.447A.727.727,0,0,0,121.317,36.72Z" transform="translate(-32.738 -6.545)" fill="#3c9d3e"/>
    <path id="Path_51435" data-name="Path 51435" d="M6.137,42.558a.727.727,0,0,0,.727-.727V37.467a.727.727,0,0,0-1.455,0v4.364A.727.727,0,0,0,6.137,42.558Z" transform="translate(-1.325 -6.55)" fill="#3c9d3e"/>
    <path id="Path_51436" data-name="Path 51436" d="M6.137,65.942a.727.727,0,0,0,.727-.727V50.727a.727.727,0,1,0-1.455,0V65.273A.727.727,0,0,0,6.137,65.942Z" transform="translate(-1.325 -10.167)" fill="#3c9d3e"/>
    <path id="Path_51437" data-name="Path 51437" d="M6.137,86.725A.727.727,0,0,0,6.865,86V78A.727.727,0,0,0,5.41,78v8A.727.727,0,0,0,6.137,86.725Z" transform="translate(-1.325 -17.604)" fill="#3c9d3e"/>
    <path id="Path_51438" data-name="Path 51438" d="M21.747,28.8a.727.727,0,0,0-1.033,0l-4.364,4.364a.725.725,0,0,0,1.025,1.025l4.364-4.364a.727.727,0,0,0,.007-1.025Z" transform="translate(-4.252 -4.326)" fill="#3c9d3e"/>
    <path id="Path_51439" data-name="Path 51439" d="M24.345,35.8a.727.727,0,0,0-.793-.16.88.88,0,0,0-.233.16.6.6,0,0,0-.16.24.7.7,0,1,0,1.185-.24Z" transform="translate(-6.152 -6.235)" fill="#3c9d3e"/>
    <path id="Path_51440" data-name="Path 51440" d="M105.345,28.8a.728.728,0,1,0-1.025,1.033l4.364,4.364a.725.725,0,1,0,1.025-1.025Z" transform="translate(-28.242 -4.327)" fill="#3c9d3e"/>
    <path id="Path_51441" data-name="Path 51441" d="M104.385,35.8a.727.727,0,0,0-1.025,0,.662.662,0,0,0-.16.24.724.724,0,1,0,1.345,0,.771.771,0,0,0-.16-.24Z" transform="translate(-27.98 -6.236)" fill="#3c9d3e"/>
  </g>
</svg>
