<svg id="Layer_16" xmlns="http://www.w3.org/2000/svg" width="87.341" height="65.257" viewBox="0 0 87.341 65.257">
  <g id="Group_52651" data-name="Group 52651" transform="translate(0 0)">
    <path id="Path_52402" data-name="Path 52402" d="M86.64,14.525a4.273,4.273,0,0,0-2.728-1.853L23.2.082a4.332,4.332,0,0,0-5.088,3.34L17,8.807l-1.1,5.351H4.3a4.3,4.3,0,0,0-4.3,4.3V60.948a4.3,4.3,0,0,0,4.3,4.3h62a4.283,4.283,0,0,0,4.144-3.2l3.095.647a4.781,4.781,0,0,0,.874.087,4.305,4.305,0,0,0,4.214-3.427L84,33.479l2.168-10.491,1.084-5.246a4.253,4.253,0,0,0-.612-3.217ZM18.622,11.29l14.006,2.868h-14.6ZM66.3,63.151H4.3a2.194,2.194,0,0,1-2.2-2.2V18.459a2.186,2.186,0,0,1,2.168-2.2H66.3a2.194,2.194,0,0,1,2.2,2.2V60.948a2.186,2.186,0,0,1-2.168,2.2Zm4.3-41.213,13.079,2.693-1.329,6.4-11.75-2.256Zm5.963,37a2.175,2.175,0,0,1-2.553,1.714.064.064,0,0,1-.052-.017l-3.357-.682V30.908l11.331,2.168ZM70.606,19.805V18.459a4.3,4.3,0,0,0-4.3-4.3H43.066L19.059,9.226l1.119-5.385a2.092,2.092,0,0,1,.944-1.381,2.09,2.09,0,0,1,1.206-.367,1.867,1.867,0,0,1,.437.052L83.493,14.717a2.2,2.2,0,0,1,1.7,2.605L84.1,22.568Z" transform="translate(0 0.007)" fill="#3c9d3e"/>
    <path id="Path_52403" data-name="Path 52403" d="M52.62,138.54h5.053a2.231,2.231,0,0,0,2.221-2.256v-3.794a2.261,2.261,0,0,0-2.221-2.291H52.62a2.261,2.261,0,0,0-2.221,2.291v3.777A2.235,2.235,0,0,0,52.62,138.54Zm-.122-6.05c0-.122.07-.192.122-.192h5.053c.052,0,.122.07.122.192v3.777c0,.1-.07.175-.122.175H52.62c-.052,0-.122-.07-.122-.175Z" transform="translate(-41.586 -107.433)" fill="#3c9d3e"/>
    <path id="Path_52404" data-name="Path 52404" d="M34.4,287.3h3.13v2.1H34.4Z" transform="translate(-28.385 -237.063)" fill="#3c9d3e"/>
    <path id="Path_52405" data-name="Path 52405" d="M63.5,287.3h3.13v2.1H63.5Z" transform="translate(-52.397 -237.063)" fill="#3c9d3e"/>
    <path id="Path_52406" data-name="Path 52406" d="M93,287.3h3.13v2.1H93Z" transform="translate(-76.739 -237.063)" fill="#3c9d3e"/>
    <path id="Path_52407" data-name="Path 52407" d="M122.1,287.3h3.13v2.1H122.1Z" transform="translate(-100.75 -237.063)" fill="#3c9d3e"/>
    <path id="Path_52408" data-name="Path 52408" d="M151.7,287.3h3.13v2.1H151.7Z" transform="translate(-125.175 -237.063)" fill="#3c9d3e"/>
    <path id="Path_52409" data-name="Path 52409" d="M313.7,115.3h2.1v3.13h-2.1Z" transform="translate(-258.848 -95.138)" fill="#3c9d3e"/>
    <path id="Path_52410" data-name="Path 52410" d="M338.3,115.3h2.1v3.13h-2.1Z" transform="translate(-279.147 -95.138)" fill="#3c9d3e"/>
    <path id="Path_52411" data-name="Path 52411" d="M260.4,115.3h2.1v3.13h-2.1Z" transform="translate(-214.868 -95.138)" fill="#3c9d3e"/>
    <path id="Path_52412" data-name="Path 52412" d="M285,115.3h2.1v3.13H285Z" transform="translate(-235.167 -95.138)" fill="#3c9d3e"/>
    <path id="Path_52413" data-name="Path 52413" d="M34.4,326.6H58.04v2.1H34.4Z" transform="translate(-28.385 -269.492)" fill="#3c9d3e"/>
  </g>
</svg>
