<svg xmlns="http://www.w3.org/2000/svg" width="74.194" height="84.793" viewBox="0 0 74.194 84.793">
  <g id="svgexport-10_5_" data-name="svgexport-10 (5)" transform="translate(-32)">
    <g id="_x32_3_Blog" transform="translate(32 0)">
      <g id="Group_52650" data-name="Group 52650" transform="translate(0 0)">
        <g id="Group_52649" data-name="Group 52649">
          <path id="Path_52385" data-name="Path 52385" d="M101.778,0H36.416A4.422,4.422,0,0,0,32,4.416V80.377a4.422,4.422,0,0,0,4.416,4.416h65.362a4.422,4.422,0,0,0,4.416-4.416V4.416A4.422,4.422,0,0,0,101.778,0ZM36.416,1.767h65.362a2.653,2.653,0,0,1,2.65,2.65V15.307H33.767V4.416A2.653,2.653,0,0,1,36.416,1.767Zm65.362,81.26H36.416a2.653,2.653,0,0,1-2.65-2.65v-63.3h70.661v63.3A2.653,2.653,0,0,1,101.778,83.027Z" transform="translate(-32 0)" fill="#3c9d3e"/>
          <path id="Path_52386" data-name="Path 52386" d="M69.392,39.782a2.916,2.916,0,1,0-2.92-2.92A2.923,2.923,0,0,0,69.392,39.782Zm0-4.066a1.15,1.15,0,1,1-1.154,1.146A1.151,1.151,0,0,1,69.392,35.717Z" transform="translate(-60.763 -28.327)" fill="#3c9d3e"/>
          <path id="Path_52387" data-name="Path 52387" d="M121.4,39.782a2.916,2.916,0,1,0-2.92-2.92A2.923,2.923,0,0,0,121.4,39.782Zm0-4.066a1.15,1.15,0,1,1-1.154,1.146A1.151,1.151,0,0,1,121.4,35.717Z" transform="translate(-104.157 -28.327)" fill="#3c9d3e"/>
          <path id="Path_52388" data-name="Path 52388" d="M173.407,39.782a2.916,2.916,0,1,0-2.92-2.92A2.923,2.923,0,0,0,173.407,39.782Zm0-4.066a1.15,1.15,0,1,1-1.154,1.146A1.151,1.151,0,0,1,173.407,35.717Z" transform="translate(-147.552 -28.327)" fill="#3c9d3e"/>
          <path id="Path_52389" data-name="Path 52389" d="M282.974,39.8h21.559a2.911,2.911,0,1,0,0-5.823H282.974a2.911,2.911,0,1,0,0,5.823Zm0-4.056h21.559a1.145,1.145,0,1,1,0,2.29H282.974a1.151,1.151,0,0,1-1.151-1.15A1.133,1.133,0,0,1,282.974,35.746Z" transform="translate(-238.976 -28.352)" fill="#3c9d3e"/>
          <path id="Path_52390" data-name="Path 52390" d="M114.927,148.484h4.729a3.939,3.939,0,0,0,3.934-4.13,3.838,3.838,0,0,0-1.579-2.863,3.661,3.661,0,0,0,1.024-4.04,3.769,3.769,0,0,0-3.575-2.352h-4.534a.883.883,0,0,0-.883.883V147.6A.883.883,0,0,0,114.927,148.484Zm4.729-1.767h-3.845v-4.333h3.646a2.3,2.3,0,0,1,2.368,2.052A2.171,2.171,0,0,1,119.656,146.718Zm-3.845-9.851h3.65a2,2,0,0,1,1.919,1.2,1.881,1.881,0,0,1-1.747,2.551h-3.822Z" transform="translate(-100.457 -112.726)" fill="#3c9d3e"/>
          <path id="Path_52391" data-name="Path 52391" d="M244.419,148.483a6.692,6.692,0,1,0-6.692-6.692A6.7,6.7,0,0,0,244.419,148.483Zm0-11.618a4.926,4.926,0,1,1-4.926,4.926A4.931,4.931,0,0,1,244.419,136.865Z" transform="translate(-203.656 -112.725)" fill="#3c9d3e"/>
          <path id="Path_52392" data-name="Path 52392" d="M334.256,147.8a6.627,6.627,0,0,0,7.057-.807.884.884,0,0,0,.333-.691v-3.355a.883.883,0,0,0-.883-.883H337.3a.883.883,0,1,0,0,1.766h2.575v2.026a4.794,4.794,0,0,1-4.856.352,4.911,4.911,0,1,1,5.189-8.266.883.883,0,1,0,1.1-1.382,6.678,6.678,0,1,0-7.057,11.24Z" transform="translate(-281.038 -112.715)" fill="#3c9d3e"/>
          <path id="Path_52393" data-name="Path 52393" d="M186.8,148.484h6.843a.883.883,0,1,0,0-1.766h-5.96V135.983a.883.883,0,0,0-1.766,0V147.6A.883.883,0,0,0,186.8,148.484Z" transform="translate(-160.426 -112.726)" fill="#3c9d3e"/>
          <path id="Path_52394" data-name="Path 52394" d="M250.171,247.894H214.964a.883.883,0,1,0,0,1.766h35.207a.883.883,0,1,0,0-1.766Z" transform="translate(-183.926 -206.84)" fill="#3c9d3e"/>
          <path id="Path_52395" data-name="Path 52395" d="M250.171,290.026H214.964a.883.883,0,1,0,0,1.766h35.207a.883.883,0,1,0,0-1.766Z" transform="translate(-183.926 -241.994)" fill="#3c9d3e"/>
          <path id="Path_52396" data-name="Path 52396" d="M250.171,332.213H214.964a.883.883,0,1,0,0,1.766h35.207a.883.883,0,1,0,0-1.766Z" transform="translate(-183.926 -277.194)" fill="#3c9d3e"/>
          <path id="Path_52397" data-name="Path 52397" d="M110.758,458.666H75.55a.883.883,0,0,0,0,1.766h35.207a.883.883,0,1,0,0-1.766Z" transform="translate(-67.601 -382.705)" fill="#3c9d3e"/>
          <path id="Path_52398" data-name="Path 52398" d="M110.758,374.346H75.55a.883.883,0,0,0,0,1.766h35.207a.883.883,0,1,0,0-1.766Z" transform="translate(-67.601 -312.35)" fill="#3c9d3e"/>
          <path id="Path_52399" data-name="Path 52399" d="M110.758,416.534H75.55a.883.883,0,0,0,0,1.766h35.207a.883.883,0,0,0,0-1.766Z" transform="translate(-67.601 -347.551)" fill="#3c9d3e"/>
          <path id="Path_52400" data-name="Path 52400" d="M76.433,263.615H91.571a1.768,1.768,0,0,0,1.767-1.767V249.66a1.768,1.768,0,0,0-1.767-1.767H76.433a1.768,1.768,0,0,0-1.767,1.767v12.189A1.768,1.768,0,0,0,76.433,263.615Zm0-13.955H91.571v12.19H76.433Z" transform="translate(-67.6 -206.839)" fill="#3c9d3e"/>
          <path id="Path_52401" data-name="Path 52401" d="M341.494,374.4H326.356a1.769,1.769,0,0,0-1.767,1.767v12.189a1.769,1.769,0,0,0,1.767,1.767h15.139a1.769,1.769,0,0,0,1.767-1.767V376.168A1.769,1.769,0,0,0,341.494,374.4Zm0,13.955H326.356V376.167h15.139Z" transform="translate(-276.133 -312.396)" fill="#3c9d3e"/>
        </g>
      </g>
    </g>
  </g>
</svg>
