<?xml version="1.0" encoding="utf-8"?>
<!-- Generator: Adobe Illustrator 26.3.1, SVG Export Plug-In . SVG Version: 6.00 Build 0)  -->
<svg version="1.1" id="Layer_1" xmlns="http://www.w3.org/2000/svg" xmlns:xlink="http://www.w3.org/1999/xlink" x="0px" y="0px"
	 viewBox="0 0 409.5 70.6" style="enable-background:new 0 0 409.5 70.6;" xml:space="preserve">
<style type="text/css">
	.st0{opacity:0.4;}
	.st1{fill:none;stroke:#FFFFFF;stroke-width:2;stroke-miterlimit:10;}
</style>
<g class="st0">
	<path class="st1" d="M25.5,6.7c-2.1,0-3.7,1.6-3.7,3.9c0,2.2,1.6,3.9,3.7,3.9c2.2,0,3.8-1.6,3.8-3.9C29.3,8.4,27.7,6.7,25.5,6.7z
		 M16.1,6.7c-2.1,0-3.7,1.6-3.7,3.9c0,2.2,1.6,3.9,3.7,3.9c2.2,0,3.8-1.6,3.8-3.9C19.9,8.4,18.4,6.7,16.1,6.7z"/>
	<path class="st1" d="M20.9,18.7c-7.6,0-15.2,7.6-15.2,16.3c0,8.1,6.5,14.4,15.2,14.4S36,43.1,36,35C36,26.4,28.5,18.7,20.9,18.7z
		 M20.9,42.3c-4.4,0-7.5-3-7.5-7.3c0-4.5,4.1-9.2,7.5-9.2s7.5,4.7,7.5,9.2C28.4,39.3,25.3,42.3,20.9,42.3z"/>
	<path class="st1" d="M73.2,45.6c-5.7,2.4-12.6,3.8-20.1,3.8c-4,0-7.9-0.4-11.3-1.1V41c3.7,0.9,7.2,1.3,11.4,1.3
		c4.4,0,8.3-0.5,11.9-1.5c-1.7-9.5-7.6-16.9-17.1-19l1.6-6.9C63.8,18,72.8,29.8,73.2,45.6z"/>
	<path class="st1" d="M128,54c-2.4,0-4.2,1.8-4.2,4.4c0,2.5,1.8,4.4,4.2,4.4c2.4,0,4.2-1.9,4.2-4.4C132.2,55.8,130.4,54,128,54z"/>
	<path class="st1" d="M145.9,42.3v-7.7c0-9.6-7.4-16.4-17.7-16.4c-4.6,0-8.9,1.3-12.7,3.7l3.3,6.5c2.8-2,5.8-3.1,9.4-3.1
		c6,0,10,3.6,10,9.3v7.7h-29.7V23.6l-0.6-0.2c-3.8-2.7-8.9-4.4-13.2-4.4c-9,0-16.4,6.7-16.4,15.3c0,8.6,7.4,15.1,16.4,15.1h6.2
		c-0.1,4.9-2.3,6.6-7.1,6.2l1.1,7.2c8.2-0.1,13.5-5,13.7-13.4h38.5l1.1-7.1L145.9,42.3L145.9,42.3z M101,42.3h-6.1
		c-5.2,0-8.9-3.5-8.9-8.1s3.7-8.2,8.9-8.2c2.1,0,4.1,0.6,6.1,1.5V42.3z"/>
	<path class="st1" d="M177.5,45.6c0,2.4-1.7,4.3-4,4.3c-2.3,0-4-1.8-4-4.3s1.7-4.1,4-4.1C175.8,41.5,177.5,43.2,177.5,45.6z"/>
	<path class="st1" d="M218.2,6c-2.1,0-3.7,1.6-3.7,3.9c0,2.2,1.6,3.9,3.7,3.9c2.2,0,3.8-1.6,3.8-3.9C222,7.7,220.5,6,218.2,6z
		 M208.9,6c-2.1,0-3.7,1.6-3.7,3.9c0,2.2,1.6,3.9,3.7,3.9c2.2,0,3.8-1.6,3.8-3.9C212.6,7.7,211.1,6,208.9,6z"/>
	<path class="st1" d="M251.1,53.9c-2.1,0-3.7,1.6-3.7,3.9c0,2.2,1.6,3.9,3.7,3.9c2.2,0,3.8-1.6,3.8-3.9
		C254.9,55.5,253.3,53.9,251.1,53.9z M241.7,53.9c-2.1,0-3.7,1.6-3.7,3.9c0,2.2,1.6,3.9,3.7,3.9c2.2,0,3.8-1.6,3.8-3.9
		C245.5,55.5,243.9,53.9,241.7,53.9z"/>
	<path class="st1" d="M279.2,5.3c-2.4,0-4.2,1.8-4.2,4.4c0,2.5,1.8,4.4,4.2,4.4c2.5,0,4.3-1.9,4.3-4.4
		C283.4,7.1,281.6,5.3,279.2,5.3z"/>
	<path class="st1" d="M279.1,19c-9.1,0-16.4,6.6-16.4,15.6c0,2.9,0.8,5.5,2.2,7.8h-11.6c-1.5,0-2.6-0.3-3.6-0.9
		c0.3-1.3,0.5-2.7,0.5-4.4V20.6h-7.6V37c0,3.8-1.2,5.4-5.2,5.4h-3.6c-4.1,0-5.2-1.6-5.2-5.4V18.2H221v1.2c-2.5-0.9-5.1-1.3-7.5-1.3
		c-8.5,0-15.6,6.5-15.6,14.7c0,8.3,7.1,14.7,15.5,14.7c3.1,0,6.6-0.9,9.6-2.3c1.9,2.7,5.2,4.1,10,4.1h5.1c3.9,0,6.7-0.9,8.6-2.7
		c2.1,1.8,4.8,2.7,8.3,2.7h36.6V22.5C288,20.6,283.6,19,279.1,19z M213.7,40.4c-4.6,0-8.1-3.4-8.1-7.6s3.6-7.6,8.1-7.6
		c2.4,0,5.1,0.8,7.3,2V37c0,0.5,0,0.9,0.1,1.3C218.5,39.7,216,40.4,213.7,40.4z M284,42.3h-7.4c-3.9-0.9-6.4-3.9-6.4-7.8
		c0-4.9,3.7-8.4,8.9-8.4c1.5,0,2.9,0.2,4.8,0.9L284,42.3L284,42.3z"/>
	<path class="st1" d="M299,5.9h7.6v43.4H299V5.9z"/>
	<path class="st1" d="M342.3,8.7c-2.1,0-3.7,1.6-3.7,3.9c0,2.2,1.6,3.9,3.7,3.9c2.2,0,3.8-1.6,3.8-3.9
		C346.1,10.3,344.5,8.7,342.3,8.7z M332.9,8.7c-2.1,0-3.7,1.6-3.7,3.9c0,2.2,1.6,3.9,3.7,3.9c2.2,0,3.8-1.6,3.8-3.9
		C336.7,10.3,335.1,8.7,332.9,8.7z"/>
	<path class="st1" d="M382.4,42.3l-1.1,7.1h-35.5c-8.2,0-12-4.1-12-12.1c-1.6,0.4-3.3,0.6-5.1,0.6c-1.9,0-3.7-0.2-5.3-0.7v11.7
		c0,8.5-5,13.6-13.1,13.8l-1.1-7.1c4.7,0.2,6.6-1.6,6.6-6.7V20.5h7.6v9.6c1.6,0.5,3.4,0.7,5.3,0.7c1.9,0,3.6-0.2,5.1-0.6v-9.6h7.6
		v16.4c0,3.8,1.2,5.4,5.2,5.4h25.9v-7.7c0-5.7-4-9.3-10-9.3c-3.6,0-6.6,1.1-9.4,3.1l-3.3-6.5c3.8-2.4,8.1-3.7,12.7-3.7
		c10.3,0,17.7,6.8,17.7,16.4v7.7L382.4,42.3L382.4,42.3z"/>
	<path class="st1" d="M400.5,60.5v4.4h-12.7v-4.4h1.2c-0.3-0.7-0.4-1.5-0.4-2.2c0-3.6,2.8-6,6.7-6c1.6,0,3.5,0.5,4.7,1.1l-1.9,4.1
		c-0.6-0.4-1.9-0.6-2.8-0.6c-1.7,0-2.6,0.9-2.6,1.9c0,0.9,0.7,1.8,1.9,1.9L400.5,60.5L400.5,60.5z"/>
	<rect x="390.3" y="5.9" class="st1" width="7.6" height="43.4"/>
</g>
</svg>
