<?xml version="1.0" encoding="utf-8"?>
<!-- Generator: Adobe Illustrator 26.3.1, SVG Export Plug-In . SVG Version: 6.00 Build 0)  -->
<svg version="1.1" id="Layer_1" xmlns="http://www.w3.org/2000/svg" xmlns:xlink="http://www.w3.org/1999/xlink" x="0px" y="0px"
	 viewBox="0 0 180.63 47.22" style="enable-background:new 0 0 180.63 47.22;" xml:space="preserve">
<style type="text/css">
	.st0{fill:#FFFFFF;}
	.st1{fill:#75BA6D;}
	.st2{fill:url(#SVGID_1_);}
	.st3{fill:url(#SVGID_00000163758060416930841390000004702438235989480882_);}
	.st4{fill:url(#SVGID_00000127752109842767238480000014420803512556765606_);}
	.st5{fill:url(#SVGID_00000163034977787929696840000012552021032172730554_);}
	.st6{fill:url(#SVGID_00000181086777262487017350000000979742163125632646_);}
	.st7{fill:url(#SVGID_00000126307569511252663710000007419429780179053189_);}
	.st8{fill:url(#SVGID_00000025413510798464027640000000258606553107627170_);}
	.st9{fill:url(#SVGID_00000098211990374324511960000014197719974573301911_);}
	.st10{fill:url(#SVGID_00000040563681196357797970000009302183679786867893_);}
	.st11{fill:url(#SVGID_00000091721476610854325810000011502330977123823515_);}
	.st12{fill:url(#SVGID_00000171720498498254622150000001510558026758430128_);}
	.st13{fill:url(#SVGID_00000142140569906101418080000000509380761042939783_);}
</style>
<g>
	<g>
		<g>
			<g>
				<g>
					<g>
						<g>
							<path class="st0" d="M68.77,13.41c-0.55,0-1.06-0.2-1.44-0.54v9.36h2.89v-9.36C69.83,13.19,69.32,13.41,68.77,13.41z"/>
							<path class="st0" d="M84.59,9.76v12.46h-2.37l-6.21-7.56v7.56h-2.85V9.76h2.38l6.19,7.56V9.76H84.59z"/>
							<path class="st1" d="M95.98,19.91v2.31h-9.26v-1.84l4.72-4.46c1.08-1.03,1.28-1.66,1.28-2.26c0-0.96-0.67-1.52-1.96-1.52
								c-1.05,0-1.94,0.4-2.54,1.22l-2.06-1.33c0.94-1.38,2.66-2.27,4.86-2.27c2.73,0,4.55,1.4,4.55,3.62
								c0,1.19-0.33,2.27-2.05,3.87l-2.82,2.66H95.98z"/>
							<path class="st0" d="M116.86,9.76l-4.07,12.46h-3.1l-2.74-8.43l-2.83,8.43h-3.08L96.95,9.76h2.99l2.81,8.76l2.94-8.76h2.67
								l2.85,8.83l2.9-8.83H116.86z"/>
							<path class="st0" d="M117.77,15.99c0-3.58,2.79-6.23,6.59-6.23c3.79,0,6.59,2.63,6.59,6.23c0,3.6-2.8,6.23-6.59,6.23
								C120.55,22.22,117.77,19.57,117.77,15.99z M128.12,15.99c0-2.29-1.62-3.85-3.77-3.85c-2.15,0-3.77,1.57-3.77,3.85
								c0,2.29,1.62,3.85,3.77,3.85C126.5,19.85,128.12,18.28,128.12,15.99z"/>
							<path class="st0" d="M141.28,22.22l-2.4-3.47h-0.14h-2.51v3.47h-2.88V9.76h5.39c3.33,0,5.41,1.73,5.41,4.52
								c0,1.87-0.94,3.24-2.56,3.93l2.79,4H141.28z M138.57,12.11h-2.35v4.34h2.35c1.76,0,2.65-0.82,2.65-2.17
								C141.22,12.91,140.33,12.11,138.57,12.11z"/>
							<path class="st0" d="M146.42,9.76h2.88v10.11h6.25v2.35h-9.13V9.76z"/>
							<path class="st0" d="M157.16,9.76h5.66c4.07,0,6.87,2.46,6.87,6.23c0,3.77-2.79,6.23-6.87,6.23h-5.66V9.76z M162.68,19.85
								c2.47,0,4.09-1.48,4.09-3.86c0-2.38-1.62-3.86-4.09-3.86h-2.63v7.72H162.68z"/>
							<path class="st1" d="M70.21,11.21c0,0.43-0.19,0.82-0.49,1.08c-0.25,0.22-0.59,0.36-0.95,0.36c-0.36,0-0.7-0.13-0.95-0.35
								c-0.31-0.26-0.5-0.65-0.5-1.09c0-0.8,0.65-1.44,1.44-1.44C69.56,9.76,70.21,10.41,70.21,11.21z"/>
						</g>
					</g>
					<g>
						<path class="st0" d="M68.34,29.05v8.46h-0.97v-8.46H68.34z"/>
						<path class="st0" d="M77.3,33.59v3.92h-0.94v-3.67c0-1.14-0.68-1.81-1.8-1.81c-1.26,0.01-2.03,0.85-2.14,2.08v3.41h-0.94
							v-6.36h0.94v1.4c0.45-0.97,1.31-1.43,2.47-1.44C76.41,31.12,77.3,32.05,77.3,33.59z"/>
						<path class="st0" d="M85.94,33.59v3.92H85v-3.67c0-1.14-0.68-1.81-1.8-1.81c-1.26,0.01-2.03,0.85-2.14,2.08v3.41h-0.94v-6.36
							h0.94v1.4c0.45-0.97,1.31-1.43,2.47-1.44C85.05,31.12,85.94,32.05,85.94,33.59z"/>
						<path class="st0" d="M94.57,34.32c0,1.9-1.34,3.23-3.23,3.23c-1.9,0-3.23-1.33-3.23-3.23c0-1.89,1.33-3.2,3.23-3.2
							C93.23,31.12,94.57,32.43,94.57,34.32z M89.06,34.33c0,1.43,0.94,2.39,2.28,2.39c1.33,0,2.28-0.97,2.28-2.39
							c0-1.4-0.95-2.38-2.28-2.38C90,31.95,89.06,32.93,89.06,34.33z"/>
						<path class="st0" d="M96.63,31.15l2.03,5.4l2.02-5.4h0.96l-2.5,6.36h-0.98l-2.53-6.36H96.63z"/>
						<path class="st0" d="M107.26,37.51v-0.99c-0.51,0.69-1.32,1.03-2.33,1.03c-1.32,0-2.16-0.83-2.16-1.92
							c0-1.11,0.88-1.81,2.38-1.83h2.09v-0.4c0-0.93-0.58-1.5-1.7-1.5c-0.7,0-1.35,0.27-2.02,0.74l-0.4-0.67
							c0.82-0.54,1.51-0.86,2.6-0.86c1.57,0,2.44,0.83,2.45,2.19l0.01,4.21H107.26z M107.24,35.32v-0.77h-1.98
							c-1.06,0-1.62,0.33-1.62,1.04c0,0.7,0.57,1.17,1.46,1.17C106.18,36.76,107,36.23,107.24,35.32z"/>
						<path class="st0" d="M114.28,37.07c-0.45,0.3-0.93,0.47-1.44,0.47c-0.93,0.01-1.62-0.54-1.62-1.8v-3.66h-0.92v-0.74h0.92
							v-1.67h0.93v1.67h2.02v0.74h-2.02v3.5c0,0.77,0.3,1.09,0.85,1.09c0.33-0.01,0.67-0.12,1.01-0.33L114.28,37.07z"/>
						<path class="st0" d="M117.49,29.33c0,0.36-0.27,0.64-0.62,0.64s-0.62-0.28-0.62-0.64c0-0.38,0.27-0.65,0.62-0.65
							S117.49,28.95,117.49,29.33z M117.34,31.15v6.36h-0.93v-6.36H117.34z"/>
						<path class="st0" d="M126.17,34.32c0,1.9-1.34,3.23-3.23,3.23c-1.9,0-3.23-1.33-3.23-3.23c0-1.89,1.33-3.2,3.23-3.2
							C124.83,31.12,126.17,32.43,126.17,34.32z M120.66,34.33c0,1.43,0.94,2.39,2.28,2.39c1.33,0,2.28-0.97,2.28-2.39
							c0-1.4-0.96-2.38-2.28-2.38C121.6,31.95,120.66,32.93,120.66,34.33z"/>
						<path class="st0" d="M134.36,33.59v3.92h-0.94v-3.67c0-1.14-0.68-1.81-1.8-1.81c-1.26,0.01-2.03,0.85-2.14,2.08v3.41h-0.94
							v-6.36h0.94v1.4c0.45-0.97,1.3-1.43,2.46-1.44C133.47,31.12,134.36,32.05,134.36,33.59z"/>
						<path class="st0" d="M146.85,33.38h0.86v3.09c-0.83,0.68-2.01,1.11-3.14,1.11c-2.45,0-4.41-1.91-4.41-4.31
							c0-2.39,1.97-4.29,4.46-4.29c1.17,0,2.31,0.45,3.12,1.17l-0.56,0.7c-0.69-0.63-1.62-0.99-2.56-0.99
							c-1.93,0-3.48,1.52-3.48,3.41c0,1.91,1.56,3.43,3.49,3.43c0.76,0,1.57-0.27,2.22-0.73V33.38z"/>
						<path class="st0" d="M154.59,37.51v-0.99c-0.51,0.69-1.32,1.03-2.33,1.03c-1.32,0-2.16-0.83-2.16-1.92
							c0-1.11,0.88-1.81,2.38-1.83h2.09v-0.4c0-0.93-0.58-1.5-1.7-1.5c-0.7,0-1.35,0.27-2.02,0.74l-0.4-0.67
							c0.82-0.54,1.51-0.86,2.6-0.86c1.57,0,2.44,0.83,2.45,2.19l0.01,4.21H154.59z M154.57,35.32v-0.77h-1.98
							c-1.06,0-1.62,0.33-1.62,1.04c0,0.7,0.57,1.17,1.46,1.17C153.51,36.76,154.33,36.23,154.57,35.32z"/>
						<path class="st0" d="M161.61,37.07c-0.45,0.3-0.93,0.47-1.44,0.47c-0.93,0.01-1.62-0.54-1.62-1.8v-3.66h-0.92v-0.74h0.92
							v-1.67h0.93v1.67h2.02v0.74h-2.02v3.5c0,0.77,0.3,1.09,0.85,1.09c0.33-0.01,0.67-0.12,1.01-0.33L161.61,37.07z"/>
						<path class="st0" d="M169.13,34.68h-5.2c0.16,1.26,1.06,2.08,2.31,2.08c0.79,0,1.47-0.29,1.97-0.81l0.52,0.54
							c-0.6,0.67-1.5,1.05-2.56,1.05c-1.87,0-3.17-1.32-3.17-3.21s1.3-3.2,3.15-3.21C168.22,31.12,169.23,32.53,169.13,34.68z
							 M168.29,33.93c-0.06-1.23-0.88-2.03-2.13-2.03c-1.22,0-2.09,0.8-2.22,2.03H168.29z"/>
					</g>
				</g>
			</g>
		</g>
	</g>
	<g>
		<linearGradient id="SVGID_1_" gradientUnits="userSpaceOnUse" x1="36.8981" y1="13.7166" x2="39.391" y2="29.9882">
			<stop  offset="0" style="stop-color:#75BA6D"/>
			<stop  offset="0.152" style="stop-color:#6CB469"/>
			<stop  offset="0.3981" style="stop-color:#54A25D"/>
			<stop  offset="0.7056" style="stop-color:#2E864A"/>
			<stop  offset="1" style="stop-color:#026634"/>
		</linearGradient>
		<path class="st2" d="M34.75,22.38c3.33,2.44,7.32,2.65,8.9,0.48c1.59-2.17,0.17-5.9-3.16-8.34s-7.32-2.65-8.9-0.48
			S31.42,19.94,34.75,22.38z"/>
		<g>
			
				<linearGradient id="SVGID_00000112589997543383068170000012507579959723539342_" gradientUnits="userSpaceOnUse" x1="40.1619" y1="-1.0058" x2="53.4453" y2="37.2569">
				<stop  offset="0" style="stop-color:#A6A9AA"/>
				<stop  offset="1" style="stop-color:#FFFFFF"/>
			</linearGradient>
			<path style="fill:url(#SVGID_00000112589997543383068170000012507579959723539342_);" d="M60.56,29.41L60.56,29.41
				c-4.58,7.61-11.67,9.39-17.23,9.41c4.04-0.33,7.54-1.99,9.74-5c4.98-6.82,1.34-17.96-8.15-24.89c-4.27-3.12-8.99-4.85-13.35-5.2
				c3.1,0.05,9.23,0.79,17.18,4.94C55.86,14.62,60.06,22.35,60.56,29.41z"/>
			
				<linearGradient id="SVGID_00000134219538174953809170000014675157956530005164_" gradientUnits="userSpaceOnUse" x1="36.8823" y1="45.9528" x2="51.2696" y2="30.7926">
				<stop  offset="0.265" style="stop-color:#B1B1B1"/>
				<stop  offset="0.9107" style="stop-color:#FFFFFF"/>
			</linearGradient>
			<path style="fill:url(#SVGID_00000134219538174953809170000014675157956530005164_);" d="M57.62,40.41
				c-1.48,2.03-3.41,3.6-5.66,4.72c-11.18-2.21-18.31-6.85-21.28-9.13c4.25,2.2,8.7,3.15,12.64,2.83c0,0,0,0,0,0
				c5.56-0.02,12.65-1.8,17.23-9.41C60.84,33.45,59.91,37.27,57.62,40.41z"/>
			
				<linearGradient id="SVGID_00000026145281269866034980000000304028419892255418_" gradientUnits="userSpaceOnUse" x1="17.025" y1="-10.2355" x2="48.1861" y2="57.0312">
				<stop  offset="0.2476" style="stop-color:#FFFFFF"/>
				<stop  offset="1" style="stop-color:#B1B1B1"/>
			</linearGradient>
			<path style="fill:url(#SVGID_00000026145281269866034980000000304028419892255418_);" d="M51.97,45.12
				c-7.85,3.9-19.53,2.22-29.4-4.99C9.88,30.86,5,15.94,11.67,6.82c6.67-9.12,22.36-9,35.05,0.28c0.7,0.51,1.38,1.05,2.04,1.6
				c-7.96-4.06-14.1-4.73-17.18-4.94c0,0,0,0,0,0c-5.32-0.42-10.1,1.24-12.84,4.99c-4.99,6.82-1.34,17.96,8.14,24.89
				c1.24,0.91,2.52,1.7,3.81,2.37C33.66,38.27,40.79,42.91,51.97,45.12z"/>
			
				<linearGradient id="SVGID_00000016075187017482664780000017776382122573359744_" gradientUnits="userSpaceOnUse" x1="30.7758" y1="35.8268" x2="51.3517" y2="46.3264">
				<stop  offset="0" style="stop-color:#A6A9AA"/>
				<stop  offset="1" style="stop-color:#B1B1B1"/>
			</linearGradient>
			<path style="fill:url(#SVGID_00000016075187017482664780000017776382122573359744_);" d="M51.97,45.12l-1.21,0.54
				c0,0-10.26-1.42-20.07-9.67C30.69,35.99,39.42,42.8,51.97,45.12z"/>
			
				<linearGradient id="SVGID_00000178182901894136031450000005436262093315576966_" gradientUnits="userSpaceOnUse" x1="50.4407" y1="36.3144" x2="59.775" y2="30.3684">
				<stop  offset="0" style="stop-color:#D9D9D9"/>
				<stop  offset="1" style="stop-color:#D9D9D9"/>
			</linearGradient>
			<path style="fill:url(#SVGID_00000178182901894136031450000005436262093315576966_);" d="M60.46,28.43l0.09,0.98
				c0,0-4.4,9.31-17.23,9.41C43.33,38.82,54.41,38.67,60.46,28.43z"/>
			
				<linearGradient id="SVGID_00000007388439847227469810000010853803658879788431_" gradientUnits="userSpaceOnUse" x1="31.5748" y1="6.2158" x2="48.7574" y2="6.2158">
				<stop  offset="0" style="stop-color:#A6A9AA"/>
				<stop  offset="1" style="stop-color:#B1B1B1"/>
			</linearGradient>
			<path style="fill:url(#SVGID_00000007388439847227469810000010853803658879788431_);" d="M31.57,3.74c0,0,6.7,0.05,15.53,3.64
				l1.65,1.3C48.76,8.69,39.49,4.41,31.57,3.74z"/>
		</g>
		<g>
			
				<linearGradient id="SVGID_00000054958876685906004080000014426931686436192174_" gradientUnits="userSpaceOnUse" x1="21.1953" y1="14.2283" x2="21.6018" y2="14.8984">
				<stop  offset="0" style="stop-color:#A6A9AA"/>
				<stop  offset="1" style="stop-color:#FFFFFF"/>
			</linearGradient>
			<path style="fill:url(#SVGID_00000054958876685906004080000014426931686436192174_);" d="M21.48,14.06
				c-0.07,0.33-0.13,0.67-0.16,1.02C21.33,14.97,21.37,14.69,21.48,14.06z"/>
			
				<linearGradient id="SVGID_00000091013476781723724650000001284949618495841694_" gradientUnits="userSpaceOnUse" x1="33.6868" y1="25.9678" x2="36.1931" y2="8.5073">
				<stop  offset="0.2017" style="stop-color:#A6A9AA"/>
				<stop  offset="1" style="stop-color:#FFFFFF"/>
			</linearGradient>
			<path style="fill:url(#SVGID_00000091013476781723724650000001284949618495841694_);" d="M48.69,15.98
				c-0.92-1.32-2.03-2.58-3.33-3.75c-0.21-0.18-0.42-0.37-0.63-0.55c-0.37-0.31-0.76-0.61-1.16-0.91c-0.7-0.51-1.42-0.98-2.14-1.39
				c0,0,0,0,0,0c-0.29-0.17-0.58-0.32-0.87-0.47c0,0,0,0,0,0c-6.76-3.49-14.15-2.94-17.54,1.71c-0.76,1.03-1.26,2.19-1.52,3.43
				c1.4,2.61,1.68,5.19,10.38,11.22c-4.72-3.72-6.48-9.42-3.9-12.95c2.67-3.65,8.93-3.59,14,0.11c1.27,0.93,2.34,1.99,3.19,3.13
				c0.06,0.08,0.12,0.16,0.18,0.24c0,0,0,0,0,0c0.05,0.06,0.09,0.13,0.13,0.19c0.06,0.09,0.12,0.18,0.18,0.27
				c2.01,3.06,2.48,6.49,0.97,9.01c0,0,0,0,0-0.01c2.29-2.78,2.06-9.3,2.06-9.3C48.68,15.97,48.69,15.98,48.69,15.98z"/>
		</g>
		
			<linearGradient id="SVGID_00000044166686306898616970000010427439410571484079_" gradientUnits="userSpaceOnUse" x1="51.3848" y1="19.2865" x2="17.4197" y2="28.8864">
			<stop  offset="0" style="stop-color:#A6A9AA"/>
			<stop  offset="1" style="stop-color:#FFFFFF"/>
		</linearGradient>
		<path style="fill:url(#SVGID_00000044166686306898616970000010427439410571484079_);" d="M49.96,30.33
			c-3.91,5.35-13.12,5.28-20.56-0.16c-5.6-4.09-8.6-10.05-8.09-15.03c0.03,0.15,1.18,4.86,10.55,10.15c0,0,0,0,0,0
			c0.15,0.12,0.3,0.23,0.45,0.35c5.06,3.7,11.33,3.75,13.99,0.11c0.11-0.15,0.21-0.3,0.3-0.46c0,0,0,0,0,0c0,0,0,0,0-0.01
			c2.29-2.78,2.06-9.3,2.06-9.3c0,0.01,0.01,0.01,0.01,0.02c0.24,0.34,0.46,0.69,0.67,1.04c0,0,0,0,0,0
			C52.16,21.64,52.58,26.74,49.96,30.33z"/>
		
			<linearGradient id="SVGID_00000145750440939281618070000013665284280667293604_" gradientUnits="userSpaceOnUse" x1="21.3102" y1="19.6656" x2="31.8652" y2="19.6656">
			<stop  offset="0" style="stop-color:#A6A9AA"/>
			<stop  offset="1" style="stop-color:#B1B1B1"/>
		</linearGradient>
		<path style="fill:url(#SVGID_00000145750440939281618070000013665284280667293604_);" d="M31.87,25.28
			c-9.37-5.29-10.52-10-10.55-10.15c0,0,0,0,0,0c0-0.01,0-0.02,0-0.02c0,0,0-0.01,0-0.01c0.01-0.08,0.05-0.34,0.17-1.04c0,0,0,0,0,0
			C22.88,16.67,23.16,19.24,31.87,25.28C31.86,25.28,31.86,25.28,31.87,25.28z"/>
		
			<linearGradient id="SVGID_00000018951593336357743670000017139818301222385336_" gradientUnits="userSpaceOnUse" x1="47.9647" y1="19.235" x2="48.0756" y2="26.1199">
			<stop  offset="0" style="stop-color:#A6A9AA"/>
			<stop  offset="1" style="stop-color:#B1B1B1"/>
		</linearGradient>
		<path style="fill:url(#SVGID_00000018951593336357743670000017139818301222385336_);" d="M46.62,25.27
			c2.29-2.78,2.06-9.3,2.06-9.3c0,0.01,0.01,0.01,0.01,0.02c0.61,0.83,0.67,1.02,0.67,1.04c0,0,0,0,0,0
			C48.78,22.73,46.75,25.12,46.62,25.27z"/>
	</g>
</g>
</svg>
