<svg id="ايقونات01-09" xmlns="http://www.w3.org/2000/svg" xmlns:xlink="http://www.w3.org/1999/xlink" width="75.417" height="86.371" viewBox="0 0 75.417 86.371">
  <defs>
    <linearGradient id="linear-gradient" x1="-0.651" y1="1.632" x2="0.896" y2="0.234" gradientUnits="objectBoundingBox">
      <stop offset="0" stop-color="#fff"/>
      <stop offset="0.15" stop-color="#fafdfb"/>
      <stop offset="0.29" stop-color="#eef8ef"/>
      <stop offset="0.44" stop-color="#daefdb"/>
      <stop offset="0.58" stop-color="#bee3bf"/>
      <stop offset="0.73" stop-color="#9ad39b"/>
      <stop offset="0.87" stop-color="#6ec070"/>
      <stop offset="1" stop-color="#42ad44"/>
    </linearGradient>
    <linearGradient id="linear-gradient-2" x1="-0.391" y1="1.706" x2="0.79" y2="0.108" xlink:href="#linear-gradient"/>
  </defs>
  <g id="Group_9225" data-name="Group 9225" transform="translate(0 0)">
    <path id="Path_646" data-name="Path 646" d="M121.1,79.5c-.437.437-.9.849-1.371,1.234-.437.372-.9.738-1.371,1.071V61.562a.645.645,0,0,0-.646-.653H107.4V86.52c-.45.1-.914.163-1.371.215s-.914.1-1.371.137a25.345,25.345,0,0,1-4.224,0,26.839,26.839,0,0,1-20.454-12.45,26.235,26.235,0,0,1-2.748-5.778,25.89,25.89,0,0,1-1.273-6.254c-.033-.5-.065-.986-.072-1.482q-.02-.7,0-1.371c.013-.464.033-.921.072-1.371A26.36,26.36,0,0,1,80.977,44.5a24.049,24.049,0,0,1,2.3-2.735A26.726,26.726,0,1,1,121.114,79.5Z" transform="translate(-53.923 -33.489)" fill="#e9eaeb"/>
    <path id="Path_647" data-name="Path 647" d="M44.36,73.38v58.951H95.079V73.38ZM63.8,101.047a5.336,5.336,0,0,1,7.593-.065l.2.2a5.327,5.327,0,0,1,1.567,3.767v9.93a1.006,1.006,0,0,1-1.005,1.005H63.194a1.006,1.006,0,0,1-1.005-1.005V104.88a5.286,5.286,0,0,1,1.5-3.7l.118-.131Z" transform="translate(-42.983 -47.338)" fill="#fff"/>
    <path id="Path_648" data-name="Path 648" d="M95.724,72.945V132.98H43.915a1.668,1.668,0,0,1-1.665-1.665V72.945a1.659,1.659,0,0,1,1.665-1.665H66.927v2.748H45.651a.646.646,0,0,0-.653.653v54.9a.646.646,0,0,0,.653.653H92.976V74.681a.646.646,0,0,0-.653-.653H72.418a1.371,1.371,0,1,1,0-2.742H94.06a1.663,1.663,0,0,1,1.665,1.665Z" transform="translate(-42.25 -46.609)" fill="#303e58"/>
    <path id="Path_649" data-name="Path 649" d="M92.682,72.128H89.94V61.422a13.031,13.031,0,0,0-26.048,0V72.128H61.15V61.422a15.772,15.772,0,0,1,31.532,0V72.128Z" transform="translate(-48.811 -37.86)" fill="#303e58"/>
    <path id="Path_650" data-name="Path 650" d="M116.722,59.946a12.585,12.585,0,0,0-12.515-11.124c-.339,0-.672.013-1.005.039l-.222-2.735c.4-.033.81-.046,1.227-.046a15.331,15.331,0,0,1,15.237,13.553l-2.722.313Z" transform="translate(-63.333 -37.86)" fill="#303e58"/>
    <path id="Path_651" data-name="Path 651" d="M79.321,93.215h0a1.371,1.371,0,0,1-1.371-1.371V71.28h1.475a1.268,1.268,0,0,1,1.267,1.267v19.3a1.371,1.371,0,0,1-1.371,1.371Z" transform="translate(-54.644 -46.609)" fill="#303e58"/>
    <path id="Path_652" data-name="Path 652" d="M62.058,92.227a4.691,4.691,0,0,1-5.778-5.778,4.606,4.606,0,0,1,3.238-3.238A4.691,4.691,0,0,1,65.3,88.989,4.606,4.606,0,0,1,62.058,92.227Zm-1.273-6.444a1.939,1.939,0,1,0,1.939,1.939A1.939,1.939,0,0,0,60.785,85.783Z" transform="translate(-47.062 -50.693)" fill="#303e58"/>
    <path id="Path_653" data-name="Path 653" d="M106.138,92.226a4.693,4.693,0,0,1-5.778-5.778A4.606,4.606,0,0,1,103.6,83.21a4.7,4.7,0,0,1,5.784,5.784,4.629,4.629,0,0,1-3.238,3.238Zm-1.267-6.444a1.939,1.939,0,1,0,1.939,1.939A1.939,1.939,0,0,0,104.871,85.782Z" transform="translate(-62.365 -50.692)" fill="#303e58"/>
    <path id="Path_654" data-name="Path 654" d="M134.737,71.28H119.95v61.693h3.44a3.618,3.618,0,0,0,1.985-.6l1.149-.764s.013-.013.02-.013a2.906,2.906,0,0,1,3.258,0c.013,0,.013.013.02.013l1.149.764a3.618,3.618,0,0,0,1.985.6H134.4a2,2,0,0,0,2-2V72.945a1.659,1.659,0,0,0-1.665-1.665Zm-8.213,57.032-2.873,1.919H122.7v-56.2h10.315a.649.649,0,0,1,.646.653v55.55h-.953l-2.872-1.919a2.981,2.981,0,0,0-3.3,0Z" transform="translate(-69.224 -46.609)" fill="#303e58"/>
    <path id="Path_655" data-name="Path 655" d="M82.351,112.436l-1.8-1.8s-.065-.065-.1-.1a5.266,5.266,0,0,0-3.656-1.456h-2.3a5.3,5.3,0,0,0-3.656,1.456,1.345,1.345,0,0,0-.17.163l-1.7,1.756a5.324,5.324,0,0,0-1.5,3.708V130.01a1.006,1.006,0,0,0,1.005,1.005H82.913a1,1,0,0,0,1-1.005V116.2a5.337,5.337,0,0,0-1.554-3.767ZM81.17,127.268a1.006,1.006,0,0,1-1.005,1.005H71.207a1.006,1.006,0,0,1-1.005-1.005v-9.995a5.286,5.286,0,0,1,1.5-3.7l.118-.131a5.336,5.336,0,0,1,7.593-.065l.2.2a5.327,5.327,0,0,1,1.567,3.767v9.93Z" transform="translate(-51.002 -59.731)" fill="#303e58"/>
  </g>
  <path id="Path_656" data-name="Path 656" d="M135.115,76.143v55.55h-.953l-2.872-1.919a2.981,2.981,0,0,0-3.3,0l-2.873,1.919h-.953V75.49h10.315a.649.649,0,0,1,.646.653Z" transform="translate(-70.686 -48.07)" fill="#e9eaeb"/>
  <path id="Path_657" data-name="Path 657" d="M82.628,118.8v9.93a1.006,1.006,0,0,1-1.005,1.005H72.665a1.006,1.006,0,0,1-1.005-1.005v-9.995a5.286,5.286,0,0,1,1.5-3.7l.118-.131a5.336,5.336,0,0,1,7.593-.065l.2.2a5.327,5.327,0,0,1,1.567,3.767Z" transform="translate(-52.46 -61.19)" fill="url(#linear-gradient)"/>
  <rect id="Rectangle_890" data-name="Rectangle 890" width="3.826" height="3.826" rx="1.53" transform="translate(11.81 35.11)" fill="url(#linear-gradient-2)"/>
  <rect id="Rectangle_891" data-name="Rectangle 891" width="3.826" height="3.826" rx="1.53" transform="translate(40.587 35.11)" fill="url(#linear-gradient-2)"/>
</svg>
