<svg id="ايقونات01-15" xmlns="http://www.w3.org/2000/svg" xmlns:xlink="http://www.w3.org/1999/xlink" width="89.916" height="86.364" viewBox="0 0 89.916 86.364">
  <defs>
    <linearGradient id="linear-gradient" x1="-0.821" y1="1.088" x2="0.655" y2="0.455" gradientUnits="objectBoundingBox">
      <stop offset="0" stop-color="#fff"/>
      <stop offset="0.15" stop-color="#fafdfb"/>
      <stop offset="0.29" stop-color="#eef8ef"/>
      <stop offset="0.44" stop-color="#daefdb"/>
      <stop offset="0.58" stop-color="#bee3bf"/>
      <stop offset="0.73" stop-color="#9ad39b"/>
      <stop offset="0.87" stop-color="#6ec070"/>
      <stop offset="1" stop-color="#42ad44"/>
    </linearGradient>
    <linearGradient id="linear-gradient-2" x1="-0.727" y1="1.21" x2="1.36" y2="0.167" xlink:href="#linear-gradient"/>
    <linearGradient id="linear-gradient-3" x1="-0.542" y1="0.895" x2="0.831" y2="0.291" xlink:href="#linear-gradient"/>
    <linearGradient id="linear-gradient-4" x1="-2.301" y1="0.715" x2="4.436" y2="0.197" xlink:href="#linear-gradient"/>
    <linearGradient id="linear-gradient-5" x1="-2.951" y1="0.765" x2="2.179" y2="0.371" xlink:href="#linear-gradient"/>
    <linearGradient id="linear-gradient-6" x1="-5.755" y1="0.981" x2="0.982" y2="0.463" xlink:href="#linear-gradient"/>
  </defs>
  <path id="Path_770" data-name="Path 770" d="M136.346,134.807a15.072,15.072,0,0,1,10.916,4.714,16.319,16.319,0,0,1,4.5,11.32V151.9h-18.3c-.215-.725-.464-1.43-.744-2.122H149.6a14.147,14.147,0,0,0-3.871-8.794,12.9,12.9,0,0,0-18.789,0l-.078.078c-.509-.49-1.038-.96-1.586-1.4.046-.046.091-.1.137-.144a15.083,15.083,0,0,1,10.916-4.714Z" transform="translate(-61.85 -71.148)" fill="#303e58" fill-rule="evenodd"/>
  <path id="Path_771" data-name="Path 771" d="M137.168,108.91a9.518,9.518,0,1,1-6.731,2.788,9.482,9.482,0,0,1,6.731-2.788ZM142.4,113.2a7.392,7.392,0,1,0,2.167,5.229A7.371,7.371,0,0,0,142.4,113.2Z" transform="translate(-62.673 -62.16)" fill="#303e58" fill-rule="evenodd"/>
  <path id="Path_772" data-name="Path 772" d="M92.563,137.11a18.939,18.939,0,0,1,13.71,5.915,20.5,20.5,0,0,1,5.66,14.232v1.058H73.2v-1.058a20.51,20.51,0,0,1,5.66-14.232,18.939,18.939,0,0,1,13.71-5.915h0Zm12.182,7.384a16.732,16.732,0,0,0-24.364,0,18.341,18.341,0,0,0-5.033,11.7h34.431A18.341,18.341,0,0,0,104.745,144.494Z" transform="translate(-43.77 -71.95)" fill="#303e58" fill-rule="evenodd"/>
  <path id="Path_773" data-name="Path 773" d="M96.566,104.09a11.836,11.836,0,1,1-8.369,3.467,11.8,11.8,0,0,1,8.369-3.467Zm6.874,4.968a9.725,9.725,0,1,0,2.846,6.874A9.689,9.689,0,0,0,103.44,109.058Z" transform="translate(-47.773 -60.487)" fill="#303e58" fill-rule="evenodd"/>
  <path id="Path_774" data-name="Path 774" d="M55.283,134.81A15.072,15.072,0,0,1,66.2,139.524c.046.046.091.1.137.144-.548.444-1.077.914-1.586,1.4l-.078-.078a12.9,12.9,0,0,0-18.789,0,14.147,14.147,0,0,0-3.871,8.794H58.893c-.274.692-.522,1.4-.744,2.122H39.85V150.85a16.307,16.307,0,0,1,4.5-11.32,15.083,15.083,0,0,1,10.916-4.713Z" transform="translate(-32.192 -71.152)" fill="#303e58" fill-rule="evenodd"/>
  <path id="Path_775" data-name="Path 775" d="M58.428,108.91A9.518,9.518,0,1,1,51.7,111.7a9.482,9.482,0,0,1,6.731-2.788Zm5.229,4.289a7.392,7.392,0,1,0,2.167,5.229A7.371,7.371,0,0,0,63.658,113.2Z" transform="translate(-35.337 -62.16)" fill="#303e58" fill-rule="evenodd"/>
  <path id="Path_776" data-name="Path 776" d="M136.242,52.39A14.577,14.577,0,0,1,146.89,76.924c-1.306,1.4-1.012.888-.509,2.925l1.2,4.851c.607,2.435.588,2-1.045.32l-3.813-3.937c-1.045-1.077-.849-.575-2.363-.124a14.6,14.6,0,0,1-12.992-2.409,23.55,23.55,0,0,0,4.4-25.454,14.586,14.586,0,0,1,4.459-.7Z" transform="translate(-62.575 -42.539)" fill="#ebedf0" fill-rule="evenodd"/>
  <path id="Path_777" data-name="Path 777" d="M135.839,50.77a15.633,15.633,0,0,1,11.431,26.316c-.078.078-.176.183-.261.281-.281.3-.379.274-.4.353-.007.052.046.072.111.294.078.268.189.607.287,1.025l1.2,4.851c.039.157.046.17.118.477.379,1.495.542,2.167-.509,2.487-.705.215-1.058-.17-1.7-.868-.176-.189-.392-.431-.744-.79l-3.813-3.937c-.242-.248-.242-.248-.248-.248a8.12,8.12,0,0,1-1.058.4,15.341,15.341,0,0,1-2.187.477,16,16,0,0,1-2.239.163,15.6,15.6,0,0,1-9.616-3.3c.509-.5.992-1.018,1.456-1.554a13.582,13.582,0,0,0,10.1,2.6,12.747,12.747,0,0,0,1.887-.411,6.047,6.047,0,0,0,.8-.3c1.142-.509,1.358-.6,2.618.705l2.592,2.677-.725-2.918c-.1-.424-.189-.7-.255-.921a2.508,2.508,0,0,1-.183-1.26c.1-.555.359-.829.94-1.449.065-.072.144-.15.255-.268a13.525,13.525,0,0,0-13.938-22.131c-.255-.666-.535-1.319-.849-1.959a15.653,15.653,0,0,1,4.909-.783h0Zm11.379,34.065c.346-.1.281-.1.065-.059C147.075,84.861,146.925,84.92,147.218,84.835Z" transform="translate(-62.173 -41.976)" fill="#303e58" fill-rule="evenodd"/>
  <path id="Path_778" data-name="Path 778" d="M44.348,53.67a14.525,14.525,0,0,1,9.172,3.245,23.583,23.583,0,0,0,3.192,19.063A14.146,14.146,0,0,1,55,78.2c-1.306,1.4-1.012.888-.509,2.925l1.2,4.851c.607,2.435.588,2-1.045.32l-3.813-3.937c-1.045-1.077-.849-.574-2.363-.124A14.579,14.579,0,1,1,44.348,53.67Z" transform="translate(-28.693 -42.983)" fill="#ebedf0" fill-rule="evenodd"/>
  <path id="Path_779" data-name="Path 779" d="M43.775,52.05a15.592,15.592,0,0,1,9.492,3.205,21.623,21.623,0,0,0-.588,2.259,13.513,13.513,0,1,0-6.959,23.561,12.748,12.748,0,0,0,1.887-.411,6.045,6.045,0,0,0,.8-.3c1.142-.509,1.358-.6,2.618.705l2.592,2.677L52.9,80.827c-.1-.424-.189-.7-.255-.921a2.508,2.508,0,0,1-.183-1.26c.1-.555.359-.829.94-1.449.065-.072.144-.15.255-.268a13.637,13.637,0,0,0,1.854-2.5A22.628,22.628,0,0,0,56.8,76.362a16.326,16.326,0,0,1-1.593,2.011c-.078.078-.176.183-.261.281-.281.3-.379.274-.4.353-.007.052.046.072.111.294.078.268.189.607.287,1.025l1.2,4.851c.039.157.046.17.118.477.379,1.495.542,2.167-.509,2.487-.705.215-1.058-.17-1.7-.868-.176-.189-.392-.431-.744-.79l-3.813-3.937c-.242-.248-.242-.248-.248-.248a8.117,8.117,0,0,1-1.058.4A15.34,15.34,0,0,1,46,83.171a16,16,0,0,1-2.239.163,15.642,15.642,0,0,1,0-31.284h0ZM55.154,86.115c.346-.1.281-.1.065-.059C55.011,86.141,54.86,86.2,55.154,86.115Z" transform="translate(-28.12 -42.421)" fill="#303e58" fill-rule="evenodd"/>
  <path id="Path_780" data-name="Path 780" d="M90.65,38.93A19.528,19.528,0,0,0,76.378,71.8c1.75,1.874,1.364,1.188.672,3.924l-1.606,6.5c-.816,3.271-.8,2.683,1.4.431l5.118-5.275c1.4-1.449,1.136-.77,3.173-.17a19.534,19.534,0,1,0,5.523-38.269ZM78.931,62.674h1.7v-2.35h2.67v7.527h-2.67V63.627h-1.7Zm20.362-3.538a.681.681,0,0,1-.131.215.619.619,0,0,1-.2.137.89.89,0,0,1-.235.065l-.248.013-.046.248-.183,1.018-.046.248.222.1a.378.378,0,0,1,.163.1.483.483,0,0,1,.131.15.537.537,0,0,1,.078.163.616.616,0,0,1-.013.431.719.719,0,0,1-.131.2.869.869,0,0,1-.2.15.89.89,0,0,1-.235.065l-.248.02-.046.235-.183,1.005-.046.235.215.1a1.226,1.226,0,0,1,.15.1.642.642,0,0,1,.131.137,1.023,1.023,0,0,1,.078.17.785.785,0,0,1,.02.183.648.648,0,0,1-.033.2.784.784,0,0,1-.085.183,1.63,1.63,0,0,1-.15.15.549.549,0,0,1-.17.1l-.385.131-.17,1.084.281.235a.788.788,0,0,1,.1.1,1.38,1.38,0,0,1,.078.131.728.728,0,0,1,.046.131.466.466,0,0,1,.013.137.8.8,0,0,1-.046.248.667.667,0,0,1-.15.215.612.612,0,0,1-.215.15.643.643,0,0,1-.248.046H87.777c-.013-.62-.033-1.4-.052-2.22a49.917,49.917,0,0,1,.052-6.026l2.6-4.374.033-.072.078-.248.013-.072.163-3.186a.914.914,0,0,1,.679-.033A2.249,2.249,0,0,1,92.464,52.7c.431.816.646,2.174-.118,4.459l-.222.7-.137.418h2.337l.1-.013h.033a.08.08,0,0,1,.033-.013h4.2a.644.644,0,0,1,.248.046.758.758,0,0,1,.215.15.643.643,0,0,1,.137.215.625.625,0,0,1,.052.248.563.563,0,0,1-.052.235Z" transform="translate(-43.044 -37.866)" fill="#ebedf0" fill-rule="evenodd"/>
  <path id="Path_781" data-name="Path 781" d="M90.087,39.422a18.466,18.466,0,0,0-13.5,31.088c.144.157.248.268.339.366.731.777,1.058,1.123,1.169,1.756a3.089,3.089,0,0,1-.228,1.528c-.091.3-.209.685-.353,1.247l-1.293,5.21,4.4-4.544c1.521-1.567,1.769-1.456,3.108-.862a7.883,7.883,0,0,0,1.116.418,17.759,17.759,0,0,0,2.579.561,18.476,18.476,0,1,0,2.651-36.761h0ZM75.522,43.332A20.6,20.6,0,1,1,90.087,78.494a20.98,20.98,0,0,1-2.944-.209,21.318,21.318,0,0,1-2.879-.627,10.294,10.294,0,0,1-1.378-.522c-.2-.091-.242-.1-.738.411l-5.112,5.275c-.45.47-.757.8-1,1.064-.764.829-1.182,1.286-1.913,1.064-1.084-.333-.881-1.129-.437-2.905.091-.359.137-.542.163-.64l1.613-6.5c.137-.561.274-1.005.385-1.358s.163-.542.163-.555-.189-.2-.62-.659l-.353-.372a20.588,20.588,0,0,1,.483-28.621h0Zm-.8,39.477c-.235,0-.333.013.02.118C75.026,83.012,74.882,82.927,74.719,82.809Z" transform="translate(-42.482 -37.3)" fill="#303e58" fill-rule="evenodd"/>
  <path id="Path_782" data-name="Path 782" d="M108.84,65.592a2.349,2.349,0,0,0,.17-.855,2.314,2.314,0,0,0-.183-.9,2.456,2.456,0,0,0-.516-.77,2.5,2.5,0,0,0-.764-.516,2.6,2.6,0,0,0-.9-.17h-4.217a1.012,1.012,0,0,1-.118.013.141.141,0,0,0-.072.013,9.441,9.441,0,0,0,.268-2.1c0-3.473-2.507-4.387-2.69-4.439l-.02-.013-.02-.013s-1.939-.555-2.748,1l-.02.065-.052.215-.013.065-.17,3.225L94.2,64.75l-.033.052-.065.2-.02.065-.033.287-.013.046v8.748a1.206,1.206,0,0,0,.1.483,1.072,1.072,0,0,0,.281.4v.013a1.287,1.287,0,0,0,.4.268,1.206,1.206,0,0,0,.483.1h9.832a2.416,2.416,0,0,0,1.665-.685h.013a2.419,2.419,0,0,0,.5-.77,2.314,2.314,0,0,0,.183-.9,2.524,2.524,0,0,0-.052-.5,3.3,3.3,0,0,0-.137-.431.137.137,0,0,0,.033-.046,2.385,2.385,0,0,0,.2-.235,2.337,2.337,0,0,0,.32-.653,2.313,2.313,0,0,0,.118-.705,2.165,2.165,0,0,0-.1-.653,1.972,1.972,0,0,0-.183-.45c.065-.052.118-.1.183-.163a2.456,2.456,0,0,0,.464-.751,2.318,2.318,0,0,0,.065-1.521,2.345,2.345,0,0,0-.2-.45c.052-.052.1-.1.15-.15a2.245,2.245,0,0,0,.47-.751Zm-1.586-.62a.681.681,0,0,1-.131.215.619.619,0,0,1-.2.137.89.89,0,0,1-.235.065l-.248.013-.046.248-.183,1.018-.046.248.222.1a.378.378,0,0,1,.163.1.483.483,0,0,1,.131.15.537.537,0,0,1,.078.163.616.616,0,0,1-.013.431.719.719,0,0,1-.131.2.869.869,0,0,1-.2.15.89.89,0,0,1-.235.065l-.248.02-.046.235-.183,1.005-.046.235.215.1a1.229,1.229,0,0,1,.15.1.642.642,0,0,1,.131.137,1.023,1.023,0,0,1,.078.17.785.785,0,0,1,.02.183.648.648,0,0,1-.033.2.785.785,0,0,1-.085.183,1.632,1.632,0,0,1-.15.15.549.549,0,0,1-.17.1l-.385.131-.17,1.084.281.235a.788.788,0,0,1,.1.1,1.38,1.38,0,0,1,.078.131.728.728,0,0,1,.046.131.467.467,0,0,1,.013.137.794.794,0,0,1-.046.248.667.667,0,0,1-.15.215.612.612,0,0,1-.215.15.643.643,0,0,1-.248.046H95.737c-.013-.62-.033-1.4-.052-2.22a49.914,49.914,0,0,1,.052-6.026l2.6-4.374.033-.072.078-.248.013-.072.163-3.186a.914.914,0,0,1,.679-.033,2.249,2.249,0,0,1,1.116,1.051c.431.816.646,2.174-.118,4.459l-.222.7-.137.418h2.337l.1-.013h.033a.08.08,0,0,1,.033-.013h4.2a.644.644,0,0,1,.248.046.758.758,0,0,1,.215.15.643.643,0,0,1,.137.215.625.625,0,0,1,.052.248.563.563,0,0,1-.052.235Z" transform="translate(-51.005 -43.702)" fill="#303e58" fill-rule="evenodd"/>
  <path id="Path_783" data-name="Path 783" d="M108.147,65.625a.563.563,0,0,1-.052.235.681.681,0,0,1-.131.215.619.619,0,0,1-.2.137.89.89,0,0,1-.235.065l-.248.013-.046.248-.183,1.018-.046.248.222.1a.378.378,0,0,1,.163.1.483.483,0,0,1,.131.15.537.537,0,0,1,.078.163.616.616,0,0,1-.013.431.719.719,0,0,1-.131.2.869.869,0,0,1-.2.15.89.89,0,0,1-.235.065l-.248.02-.046.235-.183,1.005-.046.235.215.1a1.228,1.228,0,0,1,.15.1.642.642,0,0,1,.131.137,1.023,1.023,0,0,1,.078.17.785.785,0,0,1,.02.183.648.648,0,0,1-.033.2.784.784,0,0,1-.085.183,1.631,1.631,0,0,1-.15.15.549.549,0,0,1-.17.1l-.385.131-.17,1.084.281.235a.788.788,0,0,1,.1.1,1.378,1.378,0,0,1,.078.131.727.727,0,0,1,.046.131.466.466,0,0,1,.013.137.8.8,0,0,1-.046.248.667.667,0,0,1-.15.215.612.612,0,0,1-.215.15.643.643,0,0,1-.248.046H96.579c-.013-.62-.033-1.4-.052-2.22a49.917,49.917,0,0,1,.052-6.026l2.6-4.374.033-.072.078-.248.013-.072.163-3.186a.914.914,0,0,1,.679-.033,2.249,2.249,0,0,1,1.116,1.051c.431.816.646,2.174-.118,4.459l-.222.7L100.79,65h2.337l.1-.013h.033a.08.08,0,0,1,.033-.013h4.2a.644.644,0,0,1,.248.046.758.758,0,0,1,.215.15.643.643,0,0,1,.137.215.625.625,0,0,1,.052.248Z" transform="translate(-51.846 -44.597)" fill-rule="evenodd" fill="url(#linear-gradient)"/>
  <path id="Path_784" data-name="Path 784" d="M89.171,70.562v8.01a1.47,1.47,0,0,1-.1.555,1.622,1.622,0,0,1-.32.47,1.457,1.457,0,0,1-1.031.431H84.549a1.709,1.709,0,0,1-.555-.1,1.254,1.254,0,0,1-.47-.32,1.5,1.5,0,0,1-.32-.47,1.374,1.374,0,0,1-.1-.555V74.107h1.7v4.224h2.67V70.8H84.8v2.35H83.1V70.569a1.4,1.4,0,0,1,.1-.555,1.42,1.42,0,0,1,.32-.483,1.482,1.482,0,0,1,.47-.313,1.457,1.457,0,0,1,.555-.118h3.166a1.431,1.431,0,0,1,.555.118,1.321,1.321,0,0,1,.47.313,1.42,1.42,0,0,1,.32.483,1.4,1.4,0,0,1,.1.555Z" transform="translate(-47.207 -48.34)" fill="#303e58" fill-rule="evenodd"/>
  <path id="Path_785" data-name="Path 785" d="M96.526,44.94h0a.8.8,0,0,1,.8.8V50.15a.789.789,0,0,1-.235.561h0a.8.8,0,0,1-.561.235h0a.789.789,0,0,1-.561-.235.8.8,0,0,1-.235-.561V45.736a.789.789,0,0,1,.235-.561h0a.8.8,0,0,1,.561-.235h0Zm9.806,9.806a.789.789,0,0,1-.235.561h0a.8.8,0,0,1-.561.235h-4.413a.789.789,0,0,1-.561-.235h0a.788.788,0,0,1,0-1.123h0a.8.8,0,0,1,.561-.235h4.413a.8.8,0,0,1,.561.235h0a.8.8,0,0,1,.235.561Zm-2.873-6.933.026.026.065.065v.02a.811.811,0,0,1,.137.45.78.78,0,0,1-.235.561l-3.121,3.121a.792.792,0,0,1-.561.235.791.791,0,0,1-.79-.8h0a.781.781,0,0,1,.235-.561l3.121-3.121a.788.788,0,0,1,1.123,0h0Zm-13.866,0h0a.791.791,0,0,1,.561-.235h0a.78.78,0,0,1,.561.235h0l3.121,3.121a.788.788,0,0,1,0,1.123h0a.788.788,0,0,1-1.123,0h0l-3.121-3.121h0a.788.788,0,0,1,0-1.123ZM86.72,54.746a.8.8,0,0,1,.235-.561h0a.8.8,0,0,1,.561-.235H91.93a.789.789,0,0,1,.561.235h0a.788.788,0,0,1,0,1.123h0a.8.8,0,0,1-.561.235H87.516a.789.789,0,0,1-.561-.235h0A.8.8,0,0,1,86.72,54.746Z" transform="translate(-48.463 -39.952)" fill="#303e58" fill-rule="evenodd"/>
  <path id="Path_786" data-name="Path 786" d="M140.384,63.48h0a.931.931,0,0,1,.927.927v5.53h5.53a.931.931,0,0,1,.927.927h0a.931.931,0,0,1-.927.927h-5.53v5.53a.931.931,0,0,1-.927.927h0a.931.931,0,0,1-.927-.927v-5.53H135.52c.131-.607.235-1.227.32-1.854h3.617v-5.53A.931.931,0,0,1,140.384,63.48Z" transform="translate(-65.405 -46.389)" fill="#303e58" fill-rule="evenodd"/>
  <path id="Path_787" data-name="Path 787" d="M55.947,69.041a4.388,4.388,0,0,0-.581-1.005,4.045,4.045,0,0,0-.464-.548,4.828,4.828,0,0,0-3.375-1.4,4.95,4.95,0,0,0-.986.1,4.875,4.875,0,0,0-.934.3,5.5,5.5,0,0,0-.7.372c-.137.1-.268.2-.4.3-.131-.1-.255-.2-.4-.3a6.556,6.556,0,0,0-.7-.372,5.379,5.379,0,0,0-.934-.3,4.95,4.95,0,0,0-.986-.1,4.676,4.676,0,0,0-1.821.366,4.558,4.558,0,0,0-1.554,1.031,4.8,4.8,0,0,0-1.4,3.375,4.991,4.991,0,0,0,.085.888,4.161,4.161,0,0,0,.248.855,6.474,6.474,0,0,0,.4.8,5.672,5.672,0,0,0,.548.705l3.016,3.238,2.67,2.872.346.366.268.287.222.248.235-.248.268-.287.346-.366,2.67-2.872,3.016-3.238a4.754,4.754,0,0,0,.333-.4c.072-.1.15-.2.215-.3a5.668,5.668,0,0,0,.4-.8,4.763,4.763,0,0,0,.248-.855,4.991,4.991,0,0,0,.085-.888,4.725,4.725,0,0,0-.366-1.821ZM54.877,71.5a4.452,4.452,0,0,1-.17.614,4.2,4.2,0,0,1-.287.568,4.811,4.811,0,0,1-.313.431l-.072.072-3.016,3.238-2.507,2.69-2.5-2.69L42.995,73.18l-.078-.072a4.027,4.027,0,0,1-.313-.431,3.086,3.086,0,0,1-.287-.568,3.69,3.69,0,0,1-.17-.614,2.8,2.8,0,0,1-.052-.633,3.41,3.41,0,0,1,.248-1.3,3.375,3.375,0,0,1,.738-1.1,3.556,3.556,0,0,1,1.1-.738,3.5,3.5,0,0,1,1.306-.255,2.981,2.981,0,0,1,.7.072,2.891,2.891,0,0,1,.672.215,4.355,4.355,0,0,1,.614.346,3.011,3.011,0,0,1,.522.47l.281.3.222.255.235-.255.281-.3a3.27,3.27,0,0,1,.522-.47,4.355,4.355,0,0,1,.614-.346,3.051,3.051,0,0,1,.666-.215,3.152,3.152,0,0,1,.705-.072,3.6,3.6,0,0,1,1.306.255,3.674,3.674,0,0,1,1.1.738,3.428,3.428,0,0,1,.731,1.1,3.567,3.567,0,0,1,.2,1.932Z" transform="translate(-32.491 -47.295)" fill="#303e58" fill-rule="evenodd"/>
  <path id="Path_788" data-name="Path 788" d="M46.622,69.013a2.762,2.762,0,0,1,.411.033c.124.02.242.046.379.072a.534.534,0,0,1,.235.111.476.476,0,0,1,.183.385.544.544,0,0,1-.02.144.485.485,0,0,1-.176.248.5.5,0,0,1-.3.111h0a.333.333,0,0,1-.137-.02h0c-.085-.026-.183-.046-.281-.065a2.053,2.053,0,0,0-.287-.02,1.888,1.888,0,0,0-.725.144,1.95,1.95,0,0,0-.614.411,1.845,1.845,0,0,0-.411.614,1.913,1.913,0,0,0-.144.725v.163a.954.954,0,0,0,.02.144.083.083,0,0,0,.007.039v.033h0l.065.333h-.144a.96.96,0,0,1-.065.078.493.493,0,0,1-.353.144.5.5,0,0,1-.353-.15.419.419,0,0,1-.065-.085h-.039l-.026-.144a.588.588,0,0,1-.013-.085,1.439,1.439,0,0,1-.026-.235h0c-.007-.078-.013-.163-.013-.242a2.878,2.878,0,0,1,.222-1.11,2.928,2.928,0,0,1,.627-.94A2.891,2.891,0,0,1,46.629,69Z" transform="translate(-33.539 -48.305)" fill-rule="evenodd"/>
  <path id="Path_789" data-name="Path 789" d="M87.464,71.7v7.527h-2.67V75h-1.7v-.96h1.7V71.7Z" transform="translate(-47.203 -49.242)" fill-rule="evenodd" fill="url(#linear-gradient-2)"/>
  <path id="Path_790" data-name="Path 790" d="M55.665,71.6a3.273,3.273,0,0,1-.052.633,4.452,4.452,0,0,1-.17.614,4.2,4.2,0,0,1-.287.568,4.811,4.811,0,0,1-.313.431l-.072.072L51.754,77.16l-2.507,2.69-2.5-2.69-3.016-3.238-.078-.072a4.029,4.029,0,0,1-.313-.431,3.086,3.086,0,0,1-.287-.568,3.69,3.69,0,0,1-.17-.614,2.8,2.8,0,0,1-.052-.633,3.41,3.41,0,0,1,.248-1.3,3.375,3.375,0,0,1,.738-1.1,3.556,3.556,0,0,1,1.1-.738,3.5,3.5,0,0,1,1.306-.255,2.981,2.981,0,0,1,.7.072,2.891,2.891,0,0,1,.672.215,4.355,4.355,0,0,1,.614.346,3.011,3.011,0,0,1,.522.47l.281.3.222.255.235-.255.281-.3a3.27,3.27,0,0,1,.522-.47,4.355,4.355,0,0,1,.614-.346,3.05,3.05,0,0,1,.666-.215,3.152,3.152,0,0,1,.705-.072,3.6,3.6,0,0,1,1.306.255,3.674,3.674,0,0,1,1.1.738,3.428,3.428,0,0,1,.731,1.1,3.294,3.294,0,0,1,.255,1.3Z" transform="translate(-33.227 -48.031)" fill-rule="evenodd" fill="url(#linear-gradient-3)"/>
  <ellipse id="Ellipse_61" data-name="Ellipse 61" cx="7.397" cy="7.397" rx="7.397" ry="7.397" transform="translate(15.694 48.865)" fill="url(#linear-gradient-4)"/>
  <ellipse id="Ellipse_62" data-name="Ellipse 62" cx="9.714" cy="9.714" rx="9.714" ry="9.714" transform="translate(39.079 45.725)" fill="url(#linear-gradient-5)"/>
  <ellipse id="Ellipse_63" data-name="Ellipse 63" cx="7.397" cy="7.397" rx="7.397" ry="7.397" transform="translate(67.099 48.865)" fill="url(#linear-gradient-6)"/>
</svg>
