<svg id="ايقونات01-13" xmlns="http://www.w3.org/2000/svg" xmlns:xlink="http://www.w3.org/1999/xlink" width="90.125" height="90.112" viewBox="0 0 90.125 90.112">
  <defs>
    <linearGradient id="linear-gradient" x1="-0.981" y1="1.277" x2="0.909" y2="0.285" gradientUnits="objectBoundingBox">
      <stop offset="0" stop-color="#fff"/>
      <stop offset="0.15" stop-color="#fafdfb"/>
      <stop offset="0.29" stop-color="#eef8ef"/>
      <stop offset="0.44" stop-color="#daefdb"/>
      <stop offset="0.58" stop-color="#bee3bf"/>
      <stop offset="0.73" stop-color="#9ad39b"/>
      <stop offset="0.87" stop-color="#6ec070"/>
      <stop offset="1" stop-color="#42ad44"/>
    </linearGradient>
    <linearGradient id="linear-gradient-2" x1="-0.718" y1="0.52" x2="1.147" y2="0.489" xlink:href="#linear-gradient"/>
  </defs>
  <ellipse id="Ellipse_59" data-name="Ellipse 59" cx="32.237" cy="32.237" rx="32.237" ry="32.237" transform="translate(1.097 24.54)" fill="#ebedf0"/>
  <g id="Group_9235" data-name="Group 9235" transform="translate(0 0)">
    <g id="Group_9233" data-name="Group 9233" transform="translate(1.097 1.097)">
      <path id="Path_730" data-name="Path 730" d="M76.622,113.351H35.591a2.939,2.939,0,0,1-2.931-2.931V57.67h76.193v47.4a13.8,13.8,0,0,0-3.662-1.508L103.728,98.7H99.335l-1.462,4.864a14.306,14.306,0,0,0-3.78,1.567l-4.472-2.4-3.108,3.108,2.4,4.472a13.608,13.608,0,0,0-1.345,3.049H76.622Z" transform="translate(-32.66 -48.876)" fill="#fff"/>
      <path id="Path_731" data-name="Path 731" d="M135.358,126.892a.494.494,0,0,1,.118.059l4.472-2.4,3.108,3.108-2.4,4.472a14.09,14.09,0,0,1,1.567,3.78l4.864,1.462v4.394l-4.864,1.462a14.3,14.3,0,0,1-1.567,3.78l2.4,4.472-3.108,3.108-4.472-2.4a13.883,13.883,0,0,1-3.78,1.567l-1.462,4.864H125.84l-1.462-4.864a14.306,14.306,0,0,1-3.78-1.567l-4.472,2.4-3.108-3.108,2.4-4.472a14.09,14.09,0,0,1-1.567-3.78l-4.864-1.462V137.37l4.864-1.462a5.562,5.562,0,0,1,.222-.731,13.91,13.91,0,0,1,1.345-3.049l-2.4-4.472,3.108-3.108,4.472,2.4a13.883,13.883,0,0,1,3.78-1.567l1.462-4.864h4.394l1.462,4.864a13.8,13.8,0,0,1,3.662,1.508Zm1.462,12.678a8.794,8.794,0,1,0-8.794,8.794A8.8,8.8,0,0,0,136.821,139.57Z" transform="translate(-59.159 -70.695)" fill="url(#linear-gradient)"/>
      <path id="Path_732" data-name="Path 732" d="M35.595,44.2h70.337a2.939,2.939,0,0,1,2.931,2.931v5.863H32.67V47.131A2.939,2.939,0,0,1,35.6,44.2Z" transform="translate(-32.663 -44.2)" fill="url(#linear-gradient-2)"/>
    </g>
    <g id="Group_9234" data-name="Group 9234">
      <path id="Path_733" data-name="Path 733" d="M76.039,109.188H35.008a4.034,4.034,0,0,1-4.028-4.028V46.548a4.034,4.034,0,0,1,4.028-4.028h70.337a4.034,4.034,0,0,1,4.028,4.028V91.973a1.1,1.1,0,1,1-2.194,0V46.548a1.836,1.836,0,0,0-1.834-1.834H35.008a1.836,1.836,0,0,0-1.834,1.834V105.16a1.836,1.836,0,0,0,1.834,1.834H76.039a1.1,1.1,0,1,1,0,2.194Z" transform="translate(-30.98 -42.52)" fill="#303e58"/>
      <path id="Path_734" data-name="Path 734" d="M108.28,58.184H32.087a1.1,1.1,0,1,1,0-2.194H108.28a1.1,1.1,0,0,1,0,2.194Z" transform="translate(-30.983 -47.196)" fill="#303e58"/>
      <path id="Path_735" data-name="Path 735" d="M42.529,51.454H41.067a1.1,1.1,0,1,1,0-2.194h1.462a1.1,1.1,0,1,1,0,2.194Z" transform="translate(-34.101 -44.86)" fill="#303e58"/>
      <path id="Path_736" data-name="Path 736" d="M53.749,51.454H52.287a1.1,1.1,0,1,1,0-2.194h1.462a1.1,1.1,0,1,1,0,2.194Z" transform="translate(-37.996 -44.86)" fill="#303e58"/>
      <path id="Path_737" data-name="Path 737" d="M64.969,51.454H63.507a1.1,1.1,0,1,1,0-2.194h1.462a1.1,1.1,0,1,1,0,2.194Z" transform="translate(-41.891 -44.86)" fill="#303e58"/>
      <path id="Path_738" data-name="Path 738" d="M49.95,71.654H45.557a1.1,1.1,0,1,1,0-2.194H49.95a1.1,1.1,0,1,1,0,2.194Z" transform="translate(-35.66 -51.872)" fill="#303e58"/>
      <path id="Path_739" data-name="Path 739" d="M103.155,71.654H67.987a1.1,1.1,0,0,1,0-2.194h35.169a1.1,1.1,0,1,1,0,2.194Z" transform="translate(-43.446 -51.872)" fill="#979faf"/>
      <path id="Path_740" data-name="Path 740" d="M49.95,85.124H45.557a1.1,1.1,0,1,1,0-2.194H49.95a1.1,1.1,0,1,1,0,2.194Z" transform="translate(-35.66 -56.549)" fill="#303e58"/>
      <path id="Path_741" data-name="Path 741" d="M82.643,85.124H67.987a1.1,1.1,0,0,1,0-2.194H82.643a1.1,1.1,0,0,1,0,2.194Z" transform="translate(-43.446 -56.549)" fill="#979faf"/>
      <path id="Path_742" data-name="Path 742" d="M49.95,98.584H45.557a1.1,1.1,0,1,1,0-2.194H49.95a1.1,1.1,0,1,1,0,2.194Z" transform="translate(-35.66 -61.222)" fill="#303e58"/>
      <line id="Line_17" data-name="Line 17" x2="5.863" transform="translate(24.547 36.265)" fill="none" stroke="#979faf" stroke-linecap="round" stroke-linejoin="round" stroke-width="3.37"/>
      <path id="Path_743" data-name="Path 743" d="M130.651,98.584h-8.794a1.1,1.1,0,0,1,0-2.194h8.794a1.1,1.1,0,0,1,0,2.194Z" transform="translate(-62.148 -61.222)" fill="#979faf"/>
      <path id="Path_744" data-name="Path 744" d="M102.847,98.584H88.2a1.1,1.1,0,0,1,0-2.194h14.65a1.1,1.1,0,0,1,0,2.194Z" transform="translate(-50.463 -61.222)" fill="#979faf"/>
      <path id="Path_745" data-name="Path 745" d="M132.9,154.321a9.891,9.891,0,1,1,9.891-9.891A9.9,9.9,0,0,1,132.9,154.321Zm0-17.581a7.69,7.69,0,1,0,7.69,7.69A7.7,7.7,0,0,0,132.9,136.74Z" transform="translate(-62.929 -74.466)" fill="#303e58"/>
      <path id="Path_746" data-name="Path 746" d="M129.633,159.113H125.24a1.1,1.1,0,0,1-1.051-.783l-1.293-4.283a14.91,14.91,0,0,1-2.918-1.214l-3.937,2.115a1.11,1.11,0,0,1-1.3-.189l-3.108-3.108a1.1,1.1,0,0,1-.189-1.3l2.115-3.937a15.5,15.5,0,0,1-1.214-2.918l-4.283-1.293a1.1,1.1,0,0,1-.783-1.051V136.76a1.1,1.1,0,0,1,.783-1.051l4.289-1.293a1.843,1.843,0,0,1,.072-.2,14.528,14.528,0,0,1,1.136-2.716l-2.115-3.937a1.11,1.11,0,0,1,.189-1.3l3.108-3.108a1.1,1.1,0,0,1,1.3-.189l3.937,2.115a15.319,15.319,0,0,1,2.918-1.214l1.293-4.283a1.1,1.1,0,0,1,1.051-.783h4.394a1.1,1.1,0,0,1,1.051.783l1.293,4.283a15.3,15.3,0,0,1,2.912,1.214l3.943-2.122a1.11,1.11,0,0,1,1.3.189l3.108,3.108a1.1,1.1,0,0,1,.189,1.3l-2.115,3.937a15.5,15.5,0,0,1,1.214,2.918l4.283,1.293a1.1,1.1,0,0,1,.783,1.051v4.394a1.1,1.1,0,0,1-.783,1.051l-4.283,1.293a15.077,15.077,0,0,1-1.214,2.918l2.115,3.937a1.11,1.11,0,0,1-.189,1.3l-3.108,3.108a1.1,1.1,0,0,1-1.3.189l-3.937-2.115a15.319,15.319,0,0,1-2.918,1.214l-1.293,4.283a1.1,1.1,0,0,1-1.051.783Zm-3.578-2.2h2.762l1.227-4.08a1.107,1.107,0,0,1,.783-.751,12.94,12.94,0,0,0,3.486-1.449,1.105,1.105,0,0,1,1.084-.026l3.747,2.017,1.952-1.952-2.017-3.747a1.089,1.089,0,0,1,.026-1.084,12.92,12.92,0,0,0,1.443-3.486,1.085,1.085,0,0,1,.751-.783l4.08-1.227v-2.762l-4.08-1.227a1.107,1.107,0,0,1-.751-.783,13.132,13.132,0,0,0-1.443-3.486A1.105,1.105,0,0,1,139.08,131l2.017-3.747-1.952-1.952L135.4,127.32a1.092,1.092,0,0,1-1.077-.02c-.039-.02-.078-.039-.111-.059a12.774,12.774,0,0,0-3.375-1.391,1.093,1.093,0,0,1-.79-.751l-1.227-4.08h-2.762l-1.227,4.08a1.107,1.107,0,0,1-.783.751,12.939,12.939,0,0,0-3.486,1.449,1.105,1.105,0,0,1-1.084.026l-3.747-2.017-1.952,1.952,2.017,3.747a1.105,1.105,0,0,1-.02,1.084,12.454,12.454,0,0,0-1.24,2.8.318.318,0,0,1-.026.072,4.669,4.669,0,0,0-.176.6,1.111,1.111,0,0,1-.751.8L109.5,137.6v2.762l4.08,1.227a1.108,1.108,0,0,1,.751.783,13.132,13.132,0,0,0,1.443,3.486,1.105,1.105,0,0,1,.026,1.084l-2.017,3.747,1.952,1.952,3.747-2.017a1.089,1.089,0,0,1,1.084.026,13.063,13.063,0,0,0,3.486,1.449,1.085,1.085,0,0,1,.783.751l1.227,4.08Zm-12.58-22.347Zm20.95-7.233Z" transform="translate(-57.468 -69.001)" fill="#303e58"/>
    </g>
  </g>
  <path id="Path_747" data-name="Path 747" d="M72.323,119.575c-.868-.973-1.691-1.893-2.507-2.82a1.094,1.094,0,1,1,1.593-1.462c.96,1.064,1.913,2.128,2.853,3.205a1.482,1.482,0,0,1,.02,2.128q-1.449,1.655-2.925,3.29a1.084,1.084,0,1,1-1.593-1.456c.836-.953,1.684-1.893,2.559-2.879Z" transform="translate(-44.323 -67.615)" fill="#303e58"/>
  <path id="Path_748" data-name="Path 748" d="M48.511,119.574c.829.934,1.632,1.821,2.422,2.729a1.884,1.884,0,0,1,.431.666,1,1,0,0,1-.457,1.208,1.07,1.07,0,0,1-1.371-.2c-.614-.653-1.2-1.332-1.8-2-.4-.457-.816-.9-1.208-1.371a1.45,1.45,0,0,1-.013-2.043c.973-1.123,1.965-2.233,2.964-3.336a1.079,1.079,0,0,1,1.573-.144,1.092,1.092,0,0,1,.033,1.586c-.836.96-1.684,1.9-2.579,2.905Z" transform="translate(-36.231 -67.615)" fill="#303e58"/>
  <path id="Path_749" data-name="Path 749" d="M62.877,114.577c-.268,1.142-.509,2.167-.751,3.2-.464,1.952-.914,3.9-1.41,5.843a1.911,1.911,0,0,1-.568.921A.9.9,0,0,1,59,124.513a1.011,1.011,0,0,1-.437-1.123q.568-2.429,1.149-4.857c.32-1.338.627-2.683.96-4.021a1.077,1.077,0,0,1,1.8-.679,3.057,3.057,0,0,1,.418.744Z" transform="translate(-40.543 -67.174)" fill="#303e58"/>
</svg>
