<svg id="ايقونات01-01" xmlns="http://www.w3.org/2000/svg" xmlns:xlink="http://www.w3.org/1999/xlink" width="86.366" height="86.371" viewBox="0 0 86.366 86.371">
  <defs>
    <linearGradient id="linear-gradient" y1="0.5" x2="1" y2="0.5" gradientUnits="objectBoundingBox">
      <stop offset="0" stop-color="#fff"/>
      <stop offset="1" stop-color="#42ad44"/>
    </linearGradient>
    <linearGradient id="linear-gradient-2" x1="0" y1="0.5" y2="0.5" xlink:href="#linear-gradient"/>
    <linearGradient id="linear-gradient-3" y1="0.5" x2="1" y2="0.5" gradientUnits="objectBoundingBox">
      <stop offset="0" stop-color="#fff"/>
      <stop offset="0.03" stop-color="#f3faf3"/>
      <stop offset="0.15" stop-color="#c4e5c5"/>
      <stop offset="0.28" stop-color="#9cd49d"/>
      <stop offset="0.41" stop-color="#7bc67d"/>
      <stop offset="0.55" stop-color="#62bb64"/>
      <stop offset="0.69" stop-color="#50b352"/>
      <stop offset="0.83" stop-color="#45ae47"/>
      <stop offset="1" stop-color="#42ad44"/>
    </linearGradient>
    <linearGradient id="linear-gradient-4" y1="0.5" x2="1" y2="0.5" gradientUnits="objectBoundingBox">
      <stop offset="0" stop-color="#fff"/>
      <stop offset="0.03" stop-color="#f2f9f2"/>
      <stop offset="0.15" stop-color="#c4e5c4"/>
      <stop offset="0.28" stop-color="#9cd49d"/>
      <stop offset="0.41" stop-color="#7bc57c"/>
      <stop offset="0.55" stop-color="#62ba63"/>
      <stop offset="0.69" stop-color="#50b352"/>
      <stop offset="0.83" stop-color="#45ae47"/>
      <stop offset="1" stop-color="#42ad44"/>
    </linearGradient>
  </defs>
  <g id="Group_9197" data-name="Group 9197" transform="translate(1.058 1.058)">
    <path id="Path_445" data-name="Path 445" d="M117.315,83.668A30.746,30.746,0,0,1,115.206,94.9l-3.512-7.025a109.964,109.964,0,0,1-28.085-9.832l-1.4,1.4-1.4,1.4a110.3,110.3,0,0,1,9.832,28.085l7.025,3.512A30.937,30.937,0,0,1,60.89,101.079a42.669,42.669,0,0,1,9.14-25.839h7.965V67.418a42.761,42.761,0,0,1,26.753-8.624,30.814,30.814,0,0,1,12.567,24.873Z" transform="translate(-44.295 -41.54)" fill="#ebedf0"/>
    <path id="Path_446" data-name="Path 446" d="M88.756,50.017,75.151,63.623H66.723v8.428L53.117,85.656a31.5,31.5,0,0,1-.437-5.184A30.892,30.892,0,0,1,83.572,49.58a31.5,31.5,0,0,1,5.184.437Z" transform="translate(-41.445 -38.345)" fill="#ebedf0"/>
    <path id="Path_447" data-name="Path 447" d="M125.8,105.156,122.3,98.132A110.052,110.052,0,0,1,94.21,88.3L92.8,89.71l-1.41,1.41a109.8,109.8,0,0,1,9.832,28.085l7.025,3.506,12.632,6.326L132.121,117.8l-6.326-12.632Zm-16.321,1.227a4.247,4.247,0,0,1,2.983-1.227,4.211,4.211,0,1,1-4.211,4.211,4.247,4.247,0,0,1,1.227-2.983Z" transform="translate(-54.883 -51.787)" fill="url(#linear-gradient)"/>
    <path id="Path_448" data-name="Path 448" d="M67.419,84a42.683,42.683,0,0,0-9.14,25.839A30.776,30.776,0,0,1,53.35,97.605L66.955,84Z" transform="translate(-41.677 -50.294)" fill="#ebedf0"/>
    <path id="Path_449" data-name="Path 449" d="M87.087,63.855,100.692,50.25a30.522,30.522,0,0,1,13.142,5.588A42.761,42.761,0,0,0,87.08,64.462v-.6Z" transform="translate(-53.387 -38.577)" fill="#ebedf0"/>
    <path id="Path_450" data-name="Path 450" d="M160.052,56.03v8.428H151.63V56.03Z" transform="translate(-75.796 -40.584)" fill="#fff"/>
    <path id="Path_451" data-name="Path 451" d="M154.077,136.941l-14.043,14.043-5.614-5.621,1.4-1.4,11.235-11.235,1.4-1.4Z" transform="translate(-69.821 -66.721)" fill="url(#linear-gradient-2)"/>
    <path id="Path_452" data-name="Path 452" d="M121.421,114.11a4.213,4.213,0,1,1-2.977,1.234A4.2,4.2,0,0,1,121.421,114.11Z" transform="translate(-63.847 -60.747)" fill="#fff"/>
    <path id="Path_453" data-name="Path 453" d="M117.121,32.37a4.21,4.21,0,1,1-4.211,4.211A4.2,4.2,0,0,1,117.121,32.37Z" transform="translate(-62.354 -32.37)" fill="url(#linear-gradient-3)"/>
    <path id="Path_454" data-name="Path 454" d="M82.612,71.7v7.821H74.19V71.09h8.422Z" transform="translate(-48.912 -45.812)" fill="#fff"/>
    <path id="Path_455" data-name="Path 455" d="M67.558,148.53v8.428H59.13V148.53h8.428Z" transform="translate(-43.684 -72.696)" fill="#fff"/>
    <path id="Path_456" data-name="Path 456" d="M42.658,111.044a4.21,4.21,0,1,1-2.977-1.234A4.2,4.2,0,0,1,42.658,111.044Z" transform="translate(-35.47 -59.254)" fill="url(#linear-gradient-4)"/>
  </g>
  <g id="Group_9198" data-name="Group 9198" transform="translate(0 0)">
    <path id="Path_457" data-name="Path 457" d="M82.049,80.01H73.621a1.05,1.05,0,0,1-1.051-1.051V70.531a1.05,1.05,0,0,1,1.051-1.051h8.428A1.05,1.05,0,0,1,83.1,70.531v8.428A1.05,1.05,0,0,1,82.049,80.01ZM74.679,77.9H81v-6.32h-6.32Z" transform="translate(-47.292 -44.196)" fill="#303e58"/>
    <path id="Path_458" data-name="Path 458" d="M67,157.45H58.571A1.05,1.05,0,0,1,57.52,156.4v-8.428a1.05,1.05,0,0,1,1.051-1.051H67a1.05,1.05,0,0,1,1.051,1.051V156.4A1.05,1.05,0,0,1,67,157.45Zm-7.371-2.109h6.32v-6.319h-6.32Z" transform="translate(-42.067 -71.08)" fill="#303e58"/>
    <path id="Path_459" data-name="Path 459" d="M159.489,64.95h-8.428A1.05,1.05,0,0,1,150.01,63.9V55.471a1.05,1.05,0,0,1,1.051-1.051h8.428a1.05,1.05,0,0,1,1.051,1.051V63.9A1.05,1.05,0,0,1,159.489,64.95Zm-7.371-2.109h6.32V56.522h-6.32Z" transform="translate(-74.176 -38.967)" fill="#303e58"/>
    <path id="Path_460" data-name="Path 460" d="M116.558,41.287a5.283,5.283,0,0,1-5.268-5.268,5.268,5.268,0,1,1,5.268,5.268Zm0-8.428a3.16,3.16,0,1,0,3.16,3.16,3.162,3.162,0,0,0-3.16-3.16Z" transform="translate(-60.734 -30.75)" fill="#303e58"/>
    <path id="Path_461" data-name="Path 461" d="M120.858,123.027a5.274,5.274,0,0,1-5.268-5.268,5.283,5.283,0,0,1,5.268-5.268,5.268,5.268,0,1,1,0,10.537Zm0-8.428a3.16,3.16,0,1,0,3.16,3.16A3.131,3.131,0,0,0,120.858,114.6Z" transform="translate(-62.227 -59.127)" fill="#303e58"/>
    <path id="Path_462" data-name="Path 462" d="M39.118,118.727a5.268,5.268,0,1,1,0-10.537,5.283,5.283,0,0,1,5.268,5.268A5.274,5.274,0,0,1,39.118,118.727Zm0-8.428a3.16,3.16,0,1,0,3.16,3.16,3.165,3.165,0,0,0-3.16-3.16Z" transform="translate(-33.85 -57.634)" fill="#303e58"/>
    <path id="Path_463" data-name="Path 463" d="M45.92,102.581a1.051,1.051,0,0,1-.744-1.8L63.266,82.7a1.053,1.053,0,1,1,1.488,1.488l-18.09,18.09a1.059,1.059,0,0,1-.744.307Z" transform="translate(-37.675 -48.676)" fill="#303e58"/>
    <path id="Path_464" data-name="Path 464" d="M86.53,61.961a1.051,1.051,0,0,1-.744-1.8l18.09-18.09a1.053,1.053,0,1,1,1.488,1.488l-18.09,18.09A1.059,1.059,0,0,1,86.53,61.961Z" transform="translate(-51.773 -34.575)" fill="#303e58"/>
    <path id="Path_465" data-name="Path 465" d="M86.528,67.92a1.054,1.054,0,0,1-.64-1.893A43.975,43.975,0,0,1,113.3,57.194a43.272,43.272,0,0,1,15.753,3.238,1.051,1.051,0,1,1-.8,1.945,41.231,41.231,0,0,0-15-3.081,41.9,41.9,0,0,0-26.1,8.409A1.045,1.045,0,0,1,86.528,67.92Z" transform="translate(-51.771 -39.927)" fill="#303e58"/>
    <path id="Path_466" data-name="Path 466" d="M63.242,126.625a1.041,1.041,0,0,1-.979-.672,44.172,44.172,0,0,1,6.391-43.166,1.055,1.055,0,1,1,1.658,1.306,42.062,42.062,0,0,0-6.084,41.1,1.056,1.056,0,0,1-.6,1.364A1.118,1.118,0,0,1,63.242,126.625Z" transform="translate(-42.678 -48.676)" fill="#303e58"/>
    <path id="Path_467" data-name="Path 467" d="M139.475,151.478a1.058,1.058,0,0,1-.744-.307l-5.614-5.614a1.052,1.052,0,0,1,0-1.488l14.043-14.043a1.052,1.052,0,0,1,1.488,0l5.614,5.614a1.052,1.052,0,0,1,0,1.488l-14.043,14.043A1.058,1.058,0,0,1,139.475,151.478Zm-4.126-6.672,4.126,4.126,12.554-12.554-4.126-4.126Z" transform="translate(-68.204 -65.108)" fill="#303e58"/>
    <path id="Path_468" data-name="Path 468" d="M120.327,129.523a1.014,1.014,0,0,1-.47-.111l-19.664-9.832a1.053,1.053,0,0,1-.561-.731A109.087,109.087,0,0,0,89.9,91.031a1.053,1.053,0,0,1,.2-1.227L92.9,87a1.071,1.071,0,0,1,1.227-.2,109.088,109.088,0,0,0,27.818,9.734,1.053,1.053,0,0,1,.731.561l9.832,19.664a1.051,1.051,0,0,1-1.88.94l-9.6-19.207A111.381,111.381,0,0,1,93.855,89.02l-1.73,1.73a110.918,110.918,0,0,1,9.473,27.171l19.207,9.6a1.051,1.051,0,0,1-.47,1.991Z" transform="translate(-53.267 -50.17)" fill="#303e58"/>
    <path id="Path_469" data-name="Path 469" d="M109.667,107.628a1.059,1.059,0,0,1-.744-.307L92.236,90.634a1.053,1.053,0,0,1,1.488-1.488l16.687,16.687a1.051,1.051,0,0,1-.744,1.8Z" transform="translate(-54.012 -50.916)" fill="#303e58"/>
  </g>
</svg>
