<svg id="ايقونات01-05" xmlns="http://www.w3.org/2000/svg" xmlns:xlink="http://www.w3.org/1999/xlink" width="89.093" height="86.194" viewBox="0 0 89.093 86.194">
  <defs>
    <linearGradient id="linear-gradient" x1="-1.082" y1="0.405" x2="1.052" y2="0.53" gradientUnits="objectBoundingBox">
      <stop offset="0" stop-color="#fff"/>
      <stop offset="0.15" stop-color="#fafdfb"/>
      <stop offset="0.29" stop-color="#eef8ef"/>
      <stop offset="0.44" stop-color="#daefdb"/>
      <stop offset="0.58" stop-color="#bee3bf"/>
      <stop offset="0.73" stop-color="#9ad39b"/>
      <stop offset="0.87" stop-color="#6ec070"/>
      <stop offset="1" stop-color="#42ad44"/>
    </linearGradient>
    <linearGradient id="linear-gradient-2" x1="-1.067" y1="0.424" x2="1.067" y2="0.529" xlink:href="#linear-gradient"/>
    <linearGradient id="linear-gradient-3" x1="-7.203" y1="0.38" x2="3.212" y2="0.538" xlink:href="#linear-gradient"/>
  </defs>
  <ellipse id="Ellipse_43" data-name="Ellipse 43" cx="36.213" cy="36.213" rx="36.213" ry="36.213" transform="translate(8.33 6.881)" fill="#ebedf0"/>
  <g id="Group_9207" data-name="Group 9207" transform="translate(0 0)">
    <g id="Group_9205" data-name="Group 9205" transform="translate(21.361 1.084)">
      <path id="Path_545" data-name="Path 545" d="M110.848,152.83v4.348a2.909,2.909,0,0,1-2.9,2.9H67.389a2.909,2.909,0,0,1-2.9-2.9V152.83Z" transform="translate(-64.49 -76.049)" fill="url(#linear-gradient)"/>
      <path id="Path_546" data-name="Path 546" d="M85.737,93.439h3.884l.953-5.8,2.9-10.139a17.617,17.617,0,0,1-5.8,1.449,17.617,17.617,0,0,1-5.8-1.449l2.9,10.139.953,5.8Zm25.121,22.223v.953H64.5V48.53h46.358v67.132Zm-18.7-15.936.274-1.939h-9.5l.274,1.939a2.92,2.92,0,0,0,.81,1.639l1.358,1.358a2.906,2.906,0,0,0,2.056.855h.49a2.906,2.906,0,0,0,2.056-.855l1.358-1.358a2.879,2.879,0,0,0,.81-1.639Z" transform="translate(-64.493 -39.841)" fill="#fff"/>
      <path id="Path_547" data-name="Path 547" d="M110.852,38.119v5.8H64.5v-5.8a2.909,2.909,0,0,1,2.9-2.9H107.96a2.909,2.909,0,0,1,2.9,2.9Z" transform="translate(-64.493 -35.22)" fill="url(#linear-gradient-2)"/>
      <path id="Path_548" data-name="Path 548" d="M102.714,92.91l-2.9,10.139h-5.8L91.12,92.91a17.617,17.617,0,0,0,5.8,1.449,17.617,17.617,0,0,0,5.8-1.449Z" transform="translate(-73.735 -55.248)" fill="#fff"/>
      <path id="Path_549" data-name="Path 549" d="M102.236,123.98l-.274,1.939a2.92,2.92,0,0,1-.81,1.639l-1.358,1.358a2.906,2.906,0,0,1-2.056.855h-.49a2.906,2.906,0,0,1-2.056-.855l-1.358-1.358a2.879,2.879,0,0,1-.81-1.639l-.274-1.939h9.5Z" transform="translate(-74.301 -66.034)" fill="url(#linear-gradient-3)"/>
      <path id="Path_550" data-name="Path 550" d="M101.357,108.45l-.96,5.791H96.52l-.96-5.791Z" transform="translate(-75.276 -60.643)" fill="#ebedf0"/>
    </g>
    <g id="Group_9206" data-name="Group 9206">
      <path id="Path_551" data-name="Path 551" d="M107.383,119.754H66.822a3.99,3.99,0,0,1-3.982-3.982V37.542a3.99,3.99,0,0,1,3.982-3.982h40.561a3.99,3.99,0,0,1,3.982,3.982v78.223a3.99,3.99,0,0,1-3.982,3.982ZM66.816,35.734a1.808,1.808,0,0,0-1.808,1.808v78.223a1.808,1.808,0,0,0,1.808,1.808h40.561a1.808,1.808,0,0,0,1.808-1.808V37.542a1.808,1.808,0,0,0-1.808-1.808H66.816Z" transform="translate(-42.556 -33.56)" fill="#303e58"/>
      <path id="Path_552" data-name="Path 552" d="M110.275,49.047H63.924a1.084,1.084,0,1,1,0-2.167h46.358a1.084,1.084,0,1,1,0,2.167Z" transform="translate(-42.556 -38.184)" fill="#303e58"/>
      <path id="Path_553" data-name="Path 553" d="M94.121,42.387h-5.8a1.084,1.084,0,1,1,0-2.167h5.8a1.084,1.084,0,0,1,0,2.167Z" transform="translate(-51.027 -35.872)" fill="#303e58"/>
      <path id="Path_554" data-name="Path 554" d="M107.533,42.387h-1.449a1.084,1.084,0,1,1,0-2.167h1.449a1.084,1.084,0,1,1,0,2.167Z" transform="translate(-57.192 -35.872)" fill="#303e58"/>
      <path id="Path_555" data-name="Path 555" d="M110.275,153.337H63.924a1.084,1.084,0,0,1,0-2.167h46.358a1.084,1.084,0,0,1,0,2.167Z" transform="translate(-42.556 -74.389)" fill="#303e58"/>
      <path id="Path_556" data-name="Path 556" d="M99.424,68.247a1.085,1.085,0,0,1-1.084-1.084V65.714a1.084,1.084,0,0,1,2.167,0v1.449A1.085,1.085,0,0,1,99.424,68.247Z" transform="translate(-54.88 -44.346)" fill="#979faf"/>
      <path id="Path_557" data-name="Path 557" d="M80.043,76.267a1.077,1.077,0,0,1-.77-.32l-1.012-1.012A1.085,1.085,0,0,1,79.795,73.4l1.012,1.012a1.087,1.087,0,0,1-.77,1.854Z" transform="translate(-47.799 -47.281)" fill="#979faf"/>
      <path id="Path_558" data-name="Path 558" d="M72.023,95.647H70.574a1.084,1.084,0,1,1,0-2.167h1.449a1.084,1.084,0,1,1,0,2.167Z" transform="translate(-44.865 -54.362)" fill="#979faf"/>
      <path id="Path_559" data-name="Path 559" d="M79.031,115.49a1.087,1.087,0,0,1-.77-1.854l1.025-1.025a1.085,1.085,0,1,1,1.534,1.534l-1.025,1.025a1.093,1.093,0,0,1-.77.32Z" transform="translate(-47.799 -60.893)" fill="#979faf"/>
      <path id="Path_560" data-name="Path 560" d="M119.266,115.49a1.077,1.077,0,0,1-.77-.32l-1.025-1.025A1.085,1.085,0,1,1,119,112.611l1.025,1.025a1.087,1.087,0,0,1-.77,1.854Z" transform="translate(-61.411 -60.893)" fill="#979faf"/>
      <path id="Path_561" data-name="Path 561" d="M127.5,95.647h-1.449a1.084,1.084,0,1,1,0-2.167H127.5a1.084,1.084,0,1,1,0,2.167Z" transform="translate(-64.125 -54.362)" fill="#979faf"/>
      <path id="Path_562" data-name="Path 562" d="M118.241,76.28a1.087,1.087,0,0,1-.77-1.854L118.5,73.4a1.085,1.085,0,0,1,1.534,1.534L119,75.96a1.093,1.093,0,0,1-.77.32Z" transform="translate(-61.411 -47.281)" fill="#979faf"/>
      <path id="Path_563" data-name="Path 563" d="M97.877,103.2H87.1a1.084,1.084,0,1,1,0-2.167h9.884a6.9,6.9,0,0,1,2.566-3.767,11.955,11.955,0,1,0-14.134-.007,1.088,1.088,0,1,1-1.286,1.756,14.121,14.121,0,1,1,16.687,0,4.791,4.791,0,0,0-1.867,3.114l-.013.1a1.082,1.082,0,0,1-1.077.966Z" transform="translate(-47.941 -47.433)" fill="#303e58"/>
      <path id="Path_564" data-name="Path 564" d="M97.146,130.288h-.49a3.977,3.977,0,0,1-2.827-1.175l-1.358-1.358a4.031,4.031,0,0,1-1.123-2.252l-.274-1.939a1.082,1.082,0,0,1,1.077-1.234h9.5a1.1,1.1,0,0,1,.823.372,1.067,1.067,0,0,1,.255.862l-.274,1.939a3.981,3.981,0,0,1-1.116,2.252l-1.358,1.358a3.977,3.977,0,0,1-2.827,1.175Zm-3.747-5.8.1.705a1.818,1.818,0,0,0,.5,1.025l1.358,1.358a1.808,1.808,0,0,0,1.286.535h.49a1.808,1.808,0,0,0,1.286-.535l1.358-1.358a1.8,1.8,0,0,0,.5-1.018l.1-.705h-7Z" transform="translate(-52.354 -64.377)" fill="#303e58"/>
      <path id="Path_565" data-name="Path 565" d="M98.285,109.364a.8.8,0,0,1-.176-.013,1.085,1.085,0,0,1-.894-1.247l.953-5.8a.838.838,0,0,1,.026-.124l2.3-8.076a14.543,14.543,0,0,1-4.159.77,14.543,14.543,0,0,1-4.159-.77l2.3,8.076a.693.693,0,0,1,.026.124l.953,5.8a1.085,1.085,0,1,1-2.141.353l-.947-5.732L89.5,92.645a1.085,1.085,0,0,1,1.488-1.286,16.614,16.614,0,0,0,5.353,1.358,16.614,16.614,0,0,0,5.353-1.358,1.09,1.09,0,0,1,1.488,1.293l-2.879,10.08-.947,5.732a1.08,1.08,0,0,1-1.071.907Z" transform="translate(-51.796 -53.592)" fill="#303e58"/>
      <path id="Path_566" data-name="Path 566" d="M100.781,108.957h-5.8a1.084,1.084,0,1,1,0-2.167h5.8a1.084,1.084,0,0,1,0,2.167Z" transform="translate(-53.339 -58.983)" fill="#303e58"/>
      <path id="Path_567" data-name="Path 567" d="M141.583,130.533a1.087,1.087,0,0,1-.353-2.115,7.6,7.6,0,0,0,0-14.323,1.088,1.088,0,0,1,.712-2.056,9.766,9.766,0,0,1,0,18.423,1.148,1.148,0,0,1-.359.059Z" transform="translate(-69.516 -60.784)" fill="#979faf"/>
      <path id="Path_568" data-name="Path 568" d="M141.583,134.407a1.04,1.04,0,0,1-.313-.046,1.082,1.082,0,0,1-.725-1.351l.725-2.4a1.081,1.081,0,0,1,.777-.738,12.849,12.849,0,0,0,3.447-1.43,1.1,1.1,0,0,1,1.071-.026l3.708,1.991,1.926-1.926-1.991-3.708a1.08,1.08,0,0,1,.026-1.071,12.762,12.762,0,0,0,1.43-3.447,1.081,1.081,0,0,1,.738-.777l4.035-1.214v-2.729l-4.035-1.214a1.081,1.081,0,0,1-.738-.777,12.849,12.849,0,0,0-1.43-3.447,1.1,1.1,0,0,1-.026-1.071l1.991-3.708-1.926-1.926-3.708,1.991a1.081,1.081,0,0,1-1.071-.026,12.763,12.763,0,0,0-3.447-1.43,1.081,1.081,0,0,1-.777-.738l-.725-2.4a1.084,1.084,0,1,1,2.076-.627l.548,1.828a14.581,14.581,0,0,1,2.886,1.2l3.891-2.089a1.089,1.089,0,0,1,1.286.189l3.068,3.068a1.089,1.089,0,0,1,.189,1.286l-2.089,3.891a14.98,14.98,0,0,1,1.2,2.886l4.237,1.273a1.085,1.085,0,0,1,.77,1.038v4.348a1.085,1.085,0,0,1-.77,1.038L153.6,121.39a14.579,14.579,0,0,1-1.2,2.886l2.089,3.891a1.089,1.089,0,0,1-.189,1.286l-3.068,3.068a1.089,1.089,0,0,1-1.286.189l-3.891-2.089a14.981,14.981,0,0,1-2.886,1.2l-.548,1.828a1.087,1.087,0,0,1-1.038.77Z" transform="translate(-69.515 -56.412)" fill="#979faf"/>
      <path id="Path_569" data-name="Path 569" d="M53.41,83.5a8.33,8.33,0,1,1,0-16.66,1.084,1.084,0,1,1,0,2.167,6.156,6.156,0,1,0,0,12.313,1.084,1.084,0,1,1,0,2.167Z" transform="translate(-36.391 -45.113)" fill="#979faf"/>
      <path id="Path_570" data-name="Path 570" d="M48.79,87.573H46.949a1.085,1.085,0,0,1-1.038-.77l-1.058-3.5a13.272,13.272,0,0,1-2.3-.953l-3.219,1.717a1.079,1.079,0,0,1-1.28-.189l-2.592-2.592a1.08,1.08,0,0,1-.189-1.28l1.717-3.219a13.271,13.271,0,0,1-.953-2.3l-3.5-1.058a1.085,1.085,0,0,1-.77-1.038V68.719a1.085,1.085,0,0,1,.77-1.038l3.5-1.058a13.272,13.272,0,0,1,.953-2.3l-1.717-3.219a1.079,1.079,0,0,1,.189-1.28l2.592-2.592a1.079,1.079,0,0,1,1.28-.189l3.219,1.717a13.272,13.272,0,0,1,2.3-.953l1.058-3.5a1.085,1.085,0,0,1,1.038-.77H48.79a1.084,1.084,0,0,1,0,2.167H47.758l-1,3.3a1.079,1.079,0,0,1-.783.738A10.942,10.942,0,0,0,43.1,60.93a1.089,1.089,0,0,1-1.058.02l-3.029-1.619-1.456,1.456,1.619,3.029a1.089,1.089,0,0,1-.02,1.058,10.943,10.943,0,0,0-1.188,2.872,1.09,1.09,0,0,1-.738.783l-3.3,1v2.063l3.3,1a1.079,1.079,0,0,1,.738.783,10.943,10.943,0,0,0,1.188,2.872,1.089,1.089,0,0,1,.02,1.058l-1.619,3.029,1.456,1.456,3.029-1.619a1.089,1.089,0,0,1,1.058.02,10.942,10.942,0,0,0,2.873,1.188,1.09,1.09,0,0,1,.783.738l1,3.3H48.79a1.084,1.084,0,0,1,0,2.167Z" transform="translate(-31.77 -40.496)" fill="#979faf"/>
    </g>
  </g>
</svg>
