<svg id="ايقونات01-07" xmlns="http://www.w3.org/2000/svg" xmlns:xlink="http://www.w3.org/1999/xlink" width="103.136" height="86.377" viewBox="0 0 103.136 86.377">
  <defs>
    <linearGradient id="linear-gradient" x1="-0.389" y1="0.383" x2="1.019" y2="0.565" gradientUnits="objectBoundingBox">
      <stop offset="0" stop-color="#fff"/>
      <stop offset="0.15" stop-color="#fafdfb"/>
      <stop offset="0.29" stop-color="#eef8ef"/>
      <stop offset="0.44" stop-color="#daefdb"/>
      <stop offset="0.58" stop-color="#bee3bf"/>
      <stop offset="0.73" stop-color="#9ad39b"/>
      <stop offset="0.87" stop-color="#6ec070"/>
      <stop offset="1" stop-color="#42ad44"/>
    </linearGradient>
    <linearGradient id="linear-gradient-2" x1="-0.905" y1="0.357" x2="1.558" y2="0.623" xlink:href="#linear-gradient"/>
    <linearGradient id="linear-gradient-3" x1="0.486" y1="1.3" x2="0.513" y2="-0.3" xlink:href="#linear-gradient"/>
    <linearGradient id="linear-gradient-4" x1="0.475" y1="9.853" x2="0.502" y2="-0.061" xlink:href="#linear-gradient"/>
    <linearGradient id="linear-gradient-5" x1="0.495" y1="1.25" x2="0.544" y2="-8.306" xlink:href="#linear-gradient"/>
    <linearGradient id="linear-gradient-6" x1="0.543" y1="7.814" x2="0.464" y2="-5.623" xlink:href="#linear-gradient"/>
    <linearGradient id="linear-gradient-7" x1="0.673" y1="6.454" x2="0.456" y2="-1.221" xlink:href="#linear-gradient"/>
    <linearGradient id="linear-gradient-8" x1="0.5" y1="8.468" x2="0.5" y2="-4.14" xlink:href="#linear-gradient"/>
  </defs>
  <path id="Path_597" data-name="Path 597" d="M124.149,45.128V104.9a4.608,4.608,0,0,1-4.609,4.609H80.912l2.722,10.9h7.4a1.26,1.26,0,0,1,0,2.52h-36.9a1.26,1.26,0,0,1,0-2.52h7.4l2.722-10.9H25.629A4.608,4.608,0,0,1,21.02,104.9V51.148c.4-.77.816-1.534,1.253-2.285.4-.7.816-1.4,1.253-2.07a59.126,59.126,0,0,1,5.791-7.723c.372-.431.764-.849,1.156-1.267s.8-.849,1.2-1.253h85.4c.4.4.8.823,1.2,1.253s.783.836,1.156,1.267c.751.855,1.488,1.723,2.2,2.624.431.548.849,1.1,1.253,1.652.431.581.849,1.182,1.253,1.782Z" transform="translate(-21.013 -36.55)" fill="#ebedf0"/>
  <g id="Group_9213" data-name="Group 9213" transform="translate(0 0.007)">
    <g id="Group_9211" data-name="Group 9211" transform="translate(1.253 1.253)">
      <path id="Path_598" data-name="Path 598" d="M26.286,38.48H120.2a3.363,3.363,0,0,1,3.356,3.356V98.855h-5.033V43.513H27.963V98.855H22.93V41.836A3.363,3.363,0,0,1,26.286,38.48Z" transform="translate(-22.93 -38.48)" fill="#ebedf0"/>
      <path id="Path_599" data-name="Path 599" d="M27.963,130.96h95.589v6.711a3.363,3.363,0,0,1-3.356,3.356H26.286a3.363,3.363,0,0,1-3.356-3.356V130.96Z" transform="translate(-22.93 -70.585)" fill="url(#linear-gradient)"/>
      <path id="Path_600" data-name="Path 600" d="M30.64,46.18v55.348H121.2V46.18Zm48.63,3.356h38.576v8.389H79.27V49.536Zm38.576,30.187V93.139H94.37V79.723Zm-30.187,0V93.139H64.183V79.723ZM34,49.536H72.572v21.8H34Zm0,30.187H57.472V93.139H34Z" transform="translate(-25.607 -41.153)" fill="#fff"/>
      <path id="Path_601" data-name="Path 601" d="M101.362,146.37l3.349,13.422H84.59l3.349-13.422Z" transform="translate(-44.336 -75.935)" fill="url(#linear-gradient-2)"/>
    </g>
    <g id="Group_9212" data-name="Group 9212">
      <path id="Path_602" data-name="Path 602" d="M119.534,36.56h-93.9a4.617,4.617,0,0,0-4.609,4.609V104.9a4.617,4.617,0,0,0,4.609,4.609h93.9a4.617,4.617,0,0,0,4.609-4.609V41.169A4.617,4.617,0,0,0,119.534,36.56Zm2.1,68.346a2.1,2.1,0,0,1-2.1,2.089h-93.9a2.106,2.106,0,0,1-2.1-2.089V41.169a2.1,2.1,0,0,1,2.1-2.089h93.9a2.1,2.1,0,0,1,2.1,2.089V104.9Z" transform="translate(-21.013 -36.56)" fill="#303e58"/>
      <path id="Path_603" data-name="Path 603" d="M122.886,131.55H22.27a1.26,1.26,0,1,1,0-2.52H122.886a1.26,1.26,0,1,1,0,2.52Z" transform="translate(-21.01 -68.662)" fill="#303e58"/>
      <path id="Path_604" data-name="Path 604" d="M109.226,166.253a1.265,1.265,0,0,1-1.253,1.267h-36.9a1.26,1.26,0,0,1,0-2.52h36.9A1.262,1.262,0,0,1,109.226,166.253Z" transform="translate(-37.955 -81.149)" fill="#303e58"/>
      <path id="Path_605" data-name="Path 605" d="M113.273,160.337a.959.959,0,0,1-.3.046,1.255,1.255,0,0,1-1.221-.953l-.072-.313-.32-1.253-2.722-10.9-.235-.953a1.645,1.645,0,0,1-.033-.313,1.239,1.239,0,0,1,.953-1.214,1.649,1.649,0,0,1,.313-.046,1.271,1.271,0,0,1,1.214.953l.072.3.32,1.267,2.722,10.9.235.953a1.263,1.263,0,0,1-.921,1.521Z" transform="translate(-51.338 -74.012)" fill="#303e58"/>
      <path id="Path_606" data-name="Path 606" d="M88.534,145.7a1.763,1.763,0,0,1-.033.313l-.235.953-2.722,10.9-.32,1.253-.072.313a1.255,1.255,0,0,1-1.221.953.959.959,0,0,1-.3-.046,1.263,1.263,0,0,1-.921-1.521l.235-.953,2.722-10.9.32-1.267.072-.3a1.265,1.265,0,0,1,1.214-.953,1.346,1.346,0,0,1,.313.046,1.234,1.234,0,0,1,.953,1.214Z" transform="translate(-42.418 -74.015)" fill="#303e58"/>
    </g>
  </g>
  <g id="Group_9215" data-name="Group 9215" transform="translate(78.046 12.646)">
    <g id="Group_9214" data-name="Group 9214" transform="translate(0.654 0.646)">
      <path id="Path_607" data-name="Path 607" d="M145,92.034l-3.44,3.447V68.78h6.887v26.7Z" transform="translate(-141.56 -61.031)" fill="url(#linear-gradient-3)"/>
      <path id="Path_608" data-name="Path 608" d="M148.447,63.5v3.447H141.56V63.5h6.887Z" transform="translate(-141.56 -59.198)" fill="#fff"/>
      <path id="Path_609" data-name="Path 609" d="M148.447,58.633v2.585H141.56V58.633a1.73,1.73,0,0,1,1.724-1.723h3.447a1.73,1.73,0,0,1,1.723,1.723Z" transform="translate(-141.56 -56.91)" fill="url(#linear-gradient-4)"/>
      <path id="Path_610" data-name="Path 610" d="M148.447,107.847l-1.593,3.186a2.612,2.612,0,0,0-3.7,0l-1.593-3.186,3.447-3.447,3.447,3.447Z" transform="translate(-141.56 -73.397)" fill="#fff"/>
      <path id="Path_611" data-name="Path 611" d="M147.7,114.151l-1.854,3.7-1.854-3.7a2.612,2.612,0,0,1,3.7,0Z" transform="translate(-142.404 -76.515)" fill="url(#linear-gradient-5)"/>
    </g>
    <path id="Path_612" data-name="Path 612" d="M144.657,98.55a.635.635,0,0,1-.574-.359L140.635,91.3a.637.637,0,0,1-.065-.287V58.29a2.374,2.374,0,0,1,2.37-2.37h3.447a2.374,2.374,0,0,1,2.37,2.37V91.017a.712.712,0,0,1-.065.287l-3.447,6.887a.643.643,0,0,1-.574.359Zm-2.8-7.69,2.8,5.6,2.8-5.6V58.29a1.078,1.078,0,0,0-1.077-1.077h-3.447a1.078,1.078,0,0,0-1.077,1.077V90.867Zm6.248.15Z" transform="translate(-140.562 -55.92)" fill="#303e58"/>
    <path id="Path_613" data-name="Path 613" d="M149.933,63.8h-3.447a.646.646,0,1,1,0-1.293h3.447a.646.646,0,1,1,0,1.293Z" transform="translate(-142.391 -58.208)" fill="#303e58"/>
    <path id="Path_614" data-name="Path 614" d="M149.933,69.083h-3.447a.646.646,0,1,1,0-1.293h3.447a.646.646,0,1,1,0,1.293Z" transform="translate(-142.391 -60.041)" fill="#303e58"/>
    <path id="Path_615" data-name="Path 615" d="M147.357,114.456a.653.653,0,0,1-.457-.189,1.97,1.97,0,0,0-2.788,0,.646.646,0,0,1-.914-.914,3.266,3.266,0,0,1,4.616,0,.642.642,0,0,1,0,.914.653.653,0,0,1-.457.189Z" transform="translate(-141.408 -75.527)" fill="#303e58"/>
    <path id="Path_616" data-name="Path 616" d="M148.1,108.149a.654.654,0,0,1-.457-.189l-2.99-2.99-2.99,2.99a.646.646,0,1,1-.914-.914L144.2,103.6a.642.642,0,0,1,.914,0l3.447,3.447a.642.642,0,0,1,0,.914A.654.654,0,0,1,148.1,108.149Z" transform="translate(-140.558 -72.406)" fill="#303e58"/>
    <path id="Path_617" data-name="Path 617" d="M146.486,94.17a.644.644,0,0,1-.646-.646V73.716a.646.646,0,0,1,1.293,0V93.523A.644.644,0,0,1,146.486,94.17Z" transform="translate(-142.391 -61.874)" fill="#303e58"/>
  </g>
  <rect id="Rectangle_882" data-name="Rectangle 882" width="38.576" height="22.732" transform="translate(9.642 9.642)" fill="#fff"/>
  <rect id="Rectangle_883" data-name="Rectangle 883" width="23.476" height="14.8" transform="translate(39.83 39.836)" fill="#fff"/>
  <g id="Group_9217" data-name="Group 9217" transform="translate(16.224 18.601)">
    <g id="Group_9216" data-name="Group 9216">
      <path id="Path_618" data-name="Path 618" d="M107.145,83.327H85.458V80.761H107c.2,0,.418,0,.633-.013a1.851,1.851,0,0,0,1.834-1.919c.026-.731.013-1.462.013-2.2,0-1.593-.679-2.259-2.246-2.259H85.275a3.937,3.937,0,0,1,.457-1.391c.49-.529,1.188-.881,1.665-1.417a2.472,2.472,0,0,0,.62-1.364c.091-1.11.039-2.22.026-3.336a1.686,1.686,0,0,0-1.769-1.8c-1.2-.026-2.4-.039-3.584,0a1.668,1.668,0,0,0-1.743,1.691c-.039.659-.013,1.3-.013,1.959,0,2.664-.15,2.2,1.854,3.891.039.026.065.065.1.078.8.326.679.973.594,1.678h-.705c-3.081,0-6.163-.013-9.257,0a1.883,1.883,0,0,0-2.07,2.056c-.013.692-.013,1.391-.013,2.083a1.967,1.967,0,0,0,2.233,2.246h9.825v2.566h-.705c-3.108,0-6.215-.013-9.323,0a1.9,1.9,0,0,0-2.024,2.011c-.026.705-.013,1.43-.013,2.135.013,1.554.718,2.259,2.285,2.259h9.812c0,1.012.026,1.945,0,2.879a1.451,1.451,0,0,0,.607,1.417h.633a1.224,1.224,0,0,0,.659-1.24c-.026-1,0-2,0-3.055h14.989c2.337,0,4.661.013,7,0a1.892,1.892,0,0,0,2.07-2.069V85.625c0-1.652-.672-2.311-2.337-2.311ZM83.48,78.816H73.361V76.289H83.48Zm.026,8.99H73.374V85.24H83.506ZM82.8,69.519c.078-.836.013-1.665.013-2.54h3.349c0,.542.013,1.071.013,1.619,0,.47-.013.934-.052,1.391-.026.287-.431.568-.705.81-.353.287-.718.868-1.227.483-.542-.444-1.391-.692-1.391-1.632v-.124Zm18.11,6.77h6.659v2.526h-6.659ZM85.451,76.3H98.926v2.526H85.451Zm7.756,11.5H85.464V85.24h7.743Zm14.336,0H95.2V85.227h12.339Z" transform="translate(-54.736 -65.042)" fill="#303e58"/>
      <path id="Path_619" data-name="Path 619" d="M52.369,99.46H47.962a1.854,1.854,0,0,1-2.076-2.05c-.007-.816-.013-1.639,0-2.455a1.781,1.781,0,0,1,1.834-1.893q4.661-.029,9.316,0a1.793,1.793,0,0,1,1.854,1.88c.013.862.013,1.717,0,2.579a1.828,1.828,0,0,1-1.932,1.939c-1.534.02-3.062,0-4.6,0Zm-4.55-4.492v2.566h9.133V94.968Z" transform="translate(-45.867 -74.764)" fill="#303e58"/>
      <path id="Path_620" data-name="Path 620" d="M52.4,79.327h4.465a1.826,1.826,0,0,1,2.017,2.024c0,.816.013,1.639,0,2.455a1.786,1.786,0,0,1-1.834,1.9q-4.651.039-9.316,0a1.782,1.782,0,0,1-1.861-1.874c-.02-.862-.013-1.717,0-2.579A1.793,1.793,0,0,1,47.8,79.327c1.534-.013,3.062,0,4.6,0Zm4.576,1.932H47.812v2.526h9.166Z" transform="translate(-45.861 -69.999)" fill="#303e58"/>
    </g>
    <rect id="Rectangle_884" data-name="Rectangle 884" width="9.166" height="2.526" transform="translate(1.951 11.26)" fill="url(#linear-gradient-6)"/>
    <path id="Path_621" data-name="Path 621" d="M92.205,69.643c0,.47-.013.934-.052,1.391-.026.287-.431.568-.705.81-.353.287-.718.868-1.227.483-.542-.444-1.391-.692-1.391-1.632V70.57c.078-.836.013-1.665.013-2.54h3.349c0,.542.013,1.071.013,1.619Z" transform="translate(-60.778 -66.079)" fill="url(#linear-gradient-7)"/>
    <rect id="Rectangle_885" data-name="Rectangle 885" width="9.166" height="2.526" transform="translate(1.951 20.224)" fill="url(#linear-gradient-8)"/>
  </g>
</svg>
