<svg id="ايقونات01-03" xmlns="http://www.w3.org/2000/svg" xmlns:xlink="http://www.w3.org/1999/xlink" width="73.304" height="84.262" viewBox="0 0 73.304 84.262">
  <defs>
    <linearGradient id="linear-gradient" x1="0.504" y1="-0.587" x2="0.498" y2="1.021" gradientUnits="objectBoundingBox">
      <stop offset="0" stop-color="#fff"/>
      <stop offset="0.15" stop-color="#fafdfb"/>
      <stop offset="0.29" stop-color="#eef8ef"/>
      <stop offset="0.44" stop-color="#daefdb"/>
      <stop offset="0.58" stop-color="#bee3bf"/>
      <stop offset="0.73" stop-color="#9ad39b"/>
      <stop offset="0.87" stop-color="#6ec070"/>
      <stop offset="1" stop-color="#42ad44"/>
    </linearGradient>
    <linearGradient id="linear-gradient-2" x1="0.502" y1="-0.904" x2="0.491" y2="6.269" gradientUnits="objectBoundingBox">
      <stop offset="0" stop-color="#fff"/>
      <stop offset="0.01" stop-color="#f8fbf8"/>
      <stop offset="0.09" stop-color="#cde9ce"/>
      <stop offset="0.17" stop-color="#a7d9a8"/>
      <stop offset="0.26" stop-color="#88cb89"/>
      <stop offset="0.36" stop-color="#6ec070"/>
      <stop offset="0.47" stop-color="#5ab75c"/>
      <stop offset="0.59" stop-color="#4cb14e"/>
      <stop offset="0.74" stop-color="#44ae46"/>
      <stop offset="1" stop-color="#42ad44"/>
    </linearGradient>
  </defs>
  <g id="Group_9201" data-name="Group 9201" transform="translate(16.087 6.515)">
    <path id="Path_495" data-name="Path 495" d="M109.616,71.111A20.518,20.518,0,0,1,97.284,89.952V72.482L93.034,65.4l-3.976-6.62L85.082,65.4l-4.25,7.083v17.47A20.553,20.553,0,1,1,109.6,71.111Z" transform="translate(-68.5 -50.56)" fill="#ebedf0"/>
    <path id="Path_496" data-name="Path 496" d="M135.967,87.12c-.823,7.1-4.217,11.973-6.757,16.347l3.976-7.547-.163.287a25.921,25.921,0,0,0,2.944-9.081Z" transform="translate(-89.576 -63.252)" fill="#ebedf0"/>
    <path id="Path_497" data-name="Path 497" d="M127.644,112.16l-2.944,8.33v-.039a25.891,25.891,0,0,1,2.6-7.632Z" transform="translate(-88.01 -71.945)" fill="#ebedf0"/>
    <path id="Path_498" data-name="Path 498" d="M129.21,101.707,133.2,90.446l2.97-8.4c0,.561-.013,1.123-.052,1.671s-.085,1.1-.15,1.645a25.921,25.921,0,0,1-2.944,9.081l.163-.287-3.976,7.547Z" transform="translate(-89.576 -61.492)" fill="#ebedf0"/>
    <path id="Path_499" data-name="Path 499" d="M105.774,142.813v5.164a5.491,5.491,0,0,1-2.455,4.576l-.783.522-2.246-3.414L83,152.129a5.5,5.5,0,0,1-1.893-4.152V138.7h24.658v4.113Z" transform="translate(-72.878 -81.159)" fill="#ebedf0"/>
    <path id="Path_500" data-name="Path 500" d="M103.859,84.14v35.625H87.42V84.14l8.213,4.106Z" transform="translate(-75.068 -62.218)" fill="url(#linear-gradient)"/>
    <path id="Path_501" data-name="Path 501" d="M127.644,112.16l-.339.659a26.08,26.08,0,0,0-2.6,7.632c.013-2.853,1.3-5.451,2.944-8.291Z" transform="translate(-88.01 -71.945)" fill="#ebedf0"/>
    <path id="Path_502" data-name="Path 502" d="M139.79,83.711c.039-.548.052-1.11.052-1.671C139.842,82.615,139.829,83.163,139.79,83.711Z" transform="translate(-93.249 -61.489)" fill="#ebedf0"/>
    <path id="Path_503" data-name="Path 503" d="M139.56,86.245c.065-.548.124-1.1.15-1.645A14.949,14.949,0,0,1,139.56,86.245Z" transform="translate(-93.169 -62.377)" fill="#ebedf0"/>
    <path id="Path_504" data-name="Path 504" d="M101.294,155.49l2.246,3.414-5.8,3.826a6.036,6.036,0,0,1-6.607,0l-6.574-4.341c-.189-.137-.385-.274-.561-.424l17.287-2.468Z" transform="translate(-73.881 -86.987)" fill="#ebedf0"/>
    <path id="Path_505" data-name="Path 505" d="M99.609,73.29l4.25,7.083-8.219,4.113L87.42,80.373l4.25-7.083a6.45,6.45,0,0,0,7.952,0Z" transform="translate(-75.068 -58.451)" fill="#fff"/>
    <path id="Path_506" data-name="Path 506" d="M97.886,63.15l3.976,6.62a6.45,6.45,0,0,1-7.952,0Z" transform="translate(-77.321 -54.931)" fill="url(#linear-gradient-2)"/>
  </g>
  <g id="Group_9202" data-name="Group 9202" transform="translate(0 0)">
    <path id="Path_507" data-name="Path 507" d="M85.61,40.593A27.042,27.042,0,0,0,61.592,80.1a.961.961,0,0,0,.065.144l4.315,8.206A25.088,25.088,0,0,1,68.7,97.3l.548,5.014a3.76,3.76,0,0,0,3.01,3.284v8.317a6.554,6.554,0,0,0,2.226,4.909.114.114,0,0,0,.033.026c.209.176.418.326.62.47.013.007.02.013.033.02l6.581,4.341a7.008,7.008,0,0,0,7.73,0l5.8-3.826.777-.516a6.5,6.5,0,0,0,2.912-5.432V105.59a3.76,3.76,0,0,0,3.01-3.284l.548-5.02c.046-.431.111-.888.222-1.469a.883.883,0,0,0,.013-.131,24.859,24.859,0,0,1,2.487-7.253l4.315-8.206a1,1,0,0,0,.052-.124,26.87,26.87,0,0,0,2.833-9.016h0c.078-.64.131-1.195.157-1.71s.059-1.084.059-1.737A27.091,27.091,0,0,0,85.6,40.58Zm11.3,73.327a4.438,4.438,0,0,1-2,3.721l-.777.516-5.8,3.826a4.984,4.984,0,0,1-5.471,0l-4.942-3.264,14.676-2.1a1.029,1.029,0,0,0-.287-2.037l-16.791,2.4a4.474,4.474,0,0,1-1.214-3.062v-8.245H96.918v2.194l-18.3,2.611a1.027,1.027,0,0,0,.144,2.043.61.61,0,0,0,.15-.013l18.005-2.572v3.982Zm13.651-44.674v.026c-.026.47-.072.979-.144,1.567a24.849,24.849,0,0,1-2.827,8.722.8.8,0,0,0-.065.157l-3.747,7.122-.339.653a26.845,26.845,0,0,0-2.709,7.932.719.719,0,0,0-.013.118c-.111.6-.183,1.077-.229,1.541L99.94,102.1a1.706,1.706,0,0,1-1.7,1.521H73a1.706,1.706,0,0,1-1.7-1.521l-.548-5.02A27.172,27.172,0,0,0,67.8,87.5l-4.237-8.063a1.493,1.493,0,0,0-.065-.15A25,25,0,1,1,110.627,67.66c0,.607-.02,1.129-.052,1.593Z" transform="translate(-48.959 -40.58)" fill="#303e58"/>
    <path id="Path_508" data-name="Path 508" d="M103.3,107.475a1.023,1.023,0,0,1-1.025-1.025V76.6L95.084,64.609,87.89,76.6V106.45a1.025,1.025,0,1,1-2.05,0V76.308a1.071,1.071,0,0,1,.144-.529l4.25-7.083,3.976-6.62a1.031,1.031,0,0,1,1.763,0l3.976,6.62,4.25,7.083a.99.99,0,0,1,.144.529V106.45a1.023,1.023,0,0,1-1.025,1.025Z" transform="translate(-58.432 -47.87)" fill="#303e58"/>
    <path id="Path_509" data-name="Path 509" d="M95.085,88.73a1.025,1.025,0,0,1-.457-.111l-8.219-4.113a1.026,1.026,0,0,1,.921-1.834l7.762,3.878,7.762-3.878a1.026,1.026,0,0,1,.921,1.834l-8.219,4.113a1.025,1.025,0,0,1-.457.111Z" transform="translate(-58.433 -55.154)" fill="#303e58"/>
    <path id="Path_510" data-name="Path 510" d="M97.343,75.138a6.816,6.816,0,0,1-4.674-1.652,1.025,1.025,0,0,1,1.4-1.5,5.451,5.451,0,0,0,6.541,0,1.025,1.025,0,0,1,1.4,1.5A6.839,6.839,0,0,1,97.343,75.138Z" transform="translate(-60.691 -51.388)" fill="#303e58"/>
    <path id="Path_511" data-name="Path 511" d="M99.455,116.949a1.023,1.023,0,0,1-1.025-1.025V89.895a1.025,1.025,0,0,1,2.05,0v26.029A1.023,1.023,0,0,1,99.455,116.949Z" transform="translate(-62.803 -57.344)" fill="#303e58"/>
    <path id="Path_512" data-name="Path 512" d="M147.954,68.993a1.023,1.023,0,0,1-.992-.764,1.036,1.036,0,0,1,.731-1.26l3.956-1.058a1.03,1.03,0,0,1,.529,1.991l-3.956,1.058a.94.94,0,0,1-.268.033Z" transform="translate(-79.64 -49.362)" fill="#979faf"/>
    <path id="Path_513" data-name="Path 513" d="M44.894,96.543a1.023,1.023,0,0,1-.992-.764,1.036,1.036,0,0,1,.731-1.26l3.956-1.058a1.03,1.03,0,1,1,.529,1.991l-3.956,1.058A.94.94,0,0,1,44.894,96.543Z" transform="translate(-43.862 -58.927)" fill="#979faf"/>
    <path id="Path_514" data-name="Path 514" d="M151.907,96.543a1.3,1.3,0,0,1-.268-.033l-3.956-1.058a1.03,1.03,0,0,1,.529-1.991l3.956,1.058a1.029,1.029,0,0,1-.261,2.024Z" transform="translate(-79.636 -58.927)" fill="#979faf"/>
    <path id="Path_515" data-name="Path 515" d="M48.847,68.993a1.3,1.3,0,0,1-.268-.033L44.623,67.9a1.03,1.03,0,0,1,.529-1.991l3.956,1.058a1.029,1.029,0,0,1-.261,2.024Z" transform="translate(-43.858 -49.362)" fill="#979faf"/>
    <path id="Path_516" data-name="Path 516" d="M137.858,120.859a1.007,1.007,0,0,1-.725-.3l-2.892-2.892a1.029,1.029,0,1,1,1.456-1.456l2.892,2.892a1.036,1.036,0,0,1,0,1.456,1.018,1.018,0,0,1-.725.3Z" transform="translate(-75.132 -66.732)" fill="#979faf"/>
    <path id="Path_517" data-name="Path 517" d="M62.408,45.538a1.007,1.007,0,0,1-.725-.3l-2.892-2.892a1.029,1.029,0,1,1,1.456-1.456l2.892,2.892a1.036,1.036,0,0,1,0,1.456,1.018,1.018,0,0,1-.725.3Z" transform="translate(-48.939 -40.583)" fill="#979faf"/>
    <path id="Path_518" data-name="Path 518" d="M134.966,45.539a1.007,1.007,0,0,1-.725-.3,1.036,1.036,0,0,1,0-1.456l2.892-2.892a1.029,1.029,0,0,1,1.456,1.456L135.7,45.239a1.018,1.018,0,0,1-.725.3Z" transform="translate(-75.132 -40.584)" fill="#979faf"/>
    <path id="Path_519" data-name="Path 519" d="M59.516,120.859a1.007,1.007,0,0,1-.725-.3,1.036,1.036,0,0,1,0-1.456l2.892-2.892a1.029,1.029,0,0,1,1.456,1.456l-2.892,2.892a1.018,1.018,0,0,1-.725.3Z" transform="translate(-48.939 -66.732)" fill="#979faf"/>
  </g>
</svg>
