<svg xmlns="http://www.w3.org/2000/svg" xmlns:xlink="http://www.w3.org/1999/xlink" width="75.46" height="74.83" viewBox="0 0 75.46 74.83">
  <defs>
    <linearGradient id="linear-gradient" x1="0.07" y1="0.245" x2="1.065" y2="0.856" gradientUnits="objectBoundingBox">
      <stop offset="0" stop-color="#fff"/>
      <stop offset="0.146" stop-color="#fbfdfb"/>
      <stop offset="0.291" stop-color="#eff8ef"/>
      <stop offset="0.437" stop-color="#dbefdb"/>
      <stop offset="0.584" stop-color="#bfe3bf"/>
      <stop offset="0.73" stop-color="#9ad39b"/>
      <stop offset="0.874" stop-color="#6ec070"/>
      <stop offset="1" stop-color="#42ad44"/>
    </linearGradient>
  </defs>
  <g id="ترجمة_1_" data-name="ترجمة (1)" transform="translate(-19.9 -9.56)">
    <circle id="Ellipse_77" data-name="Ellipse 77" cx="33.86" cy="33.86" r="33.86" transform="translate(25.31 16.67)" fill="#ebedf0"/>
    <g id="Group_9513" data-name="Group 9513">
      <g id="Group_9511" data-name="Group 9511">
        <path id="Path_897" data-name="Path 897" d="M64.47,55.85H53.43a4.323,4.323,0,0,1-3.08-1.27,4.42,4.42,0,0,1-.93-1.38,4.3,4.3,0,0,1-.34-1.7V37.34A22.134,22.134,0,0,0,20.4,58.47,22.107,22.107,0,0,0,42.52,80.58H62.34a2.3,2.3,0,0,0,2.29-2.29V58.47A22.612,22.612,0,0,0,64.47,55.85ZM47.54,72.09a10.91,10.91,0,0,1-2.86.94,20.755,20.755,0,0,1-3.97.32,10.667,10.667,0,0,1-7.18-2.25,7.59,7.59,0,0,1-2.63-6.08,6.565,6.565,0,0,1,.71-3.26,7.2,7.2,0,0,1,2.01-2.21,4.6,4.6,0,0,1-1.17-1.62,5.409,5.409,0,0,1-.56-2.39,6.174,6.174,0,0,1,1.99-4.75,7.451,7.451,0,0,1,5.21-1.82,28.118,28.118,0,0,1,2.96.13c.84.08,1.33.13,1.48.15v4.62h-.15c-.36-.03-.96-.07-1.78-.13s-1.63-.08-2.39-.08a3.4,3.4,0,0,0-2.28.79,2.3,2.3,0,0,0-.92,1.78,2.249,2.249,0,0,0,.25,1.09,1.694,1.694,0,0,0,.65.72l8.01-2v3.94l-6.41,1.59a5.6,5.6,0,0,0-2.61,1.27,2.876,2.876,0,0,0-.9,2.15,2.511,2.511,0,0,0,1.5,2.24,8.617,8.617,0,0,0,4.18.84,24.826,24.826,0,0,0,3.77-.3,14.487,14.487,0,0,0,2.97-.7h.12v5.02Z" stroke="#303e58" stroke-miterlimit="10" stroke-width="1" fill="url(#linear-gradient)"/>
      </g>
      <path id="Path_898" data-name="Path 898" d="M43.27,51.72l3.61,10.49H39.67Z" fill="none"/>
      <path id="Path_899" data-name="Path 899" d="M34.5,19.86a13.74,13.74,0,0,1,7.81-1.9l-1.18,4.62,11.32-3.17-8.41-8.22-1.12,4.36a16.064,16.064,0,0,0-9.67,2.2,16.235,16.235,0,0,0-5.88,21.88,23.663,23.663,0,0,1,2-1.45A13.787,13.787,0,0,1,34.5,19.86Z" fill="#303e58"/>
      <path id="Path_900" data-name="Path 900" d="M73.24,9.56A22.111,22.111,0,0,0,51.13,31.67V51.5a1.7,1.7,0,0,0,.01.23h0a.127.127,0,0,0,.01.06c0,.02.01.04.01.06.01.04.01.08.02.11h0a2.025,2.025,0,0,0,.09.33h0a1.894,1.894,0,0,0,.09.21h0a2.3,2.3,0,0,0,2.07,1.3H73.25A22.111,22.111,0,0,0,95.36,31.69h0A22.118,22.118,0,0,0,73.24,9.56ZM90.61,39.02a18.909,18.909,0,0,1-6.83,8.29,19.419,19.419,0,0,1-3.2,1.74,18.763,18.763,0,0,1-7.34,1.48H54.39V31.68A18.828,18.828,0,0,1,83.77,16.05a19.276,19.276,0,0,1,2.79,2.3,18.922,18.922,0,0,1,4.05,20.67Z" fill="#303e58"/>
      <path id="Path_901" data-name="Path 901" d="M89.28,49.75a13.762,13.762,0,0,1-12.4,20.4l1.03-4.66L66.7,69.03l8.67,7.94.97-4.39A16.207,16.207,0,0,0,91.08,47.97c-.25.27-.5.53-.76.79C89.99,49.1,89.64,49.43,89.28,49.75Z" fill="#303e58"/>
      <g id="Group_9512" data-name="Group 9512">
        <path id="Path_902" data-name="Path 902" d="M61.44,39.98V26.08h9.4v2.65H64.91v2.44h5.46v2.65H64.91v3.51h5.93v2.65Z" fill="#303e58"/>
        <path id="Path_903" data-name="Path 903" d="M85.1,39.98H81.74l-5.36-9.69v9.69H73.2V26.08h4.28l4.43,7.96V26.08H85.1Z" fill="#303e58"/>
      </g>
    </g>
  </g>
</svg>
