<svg id="svgexport-14" xmlns="http://www.w3.org/2000/svg" width="32" height="32" viewBox="0 0 32 32">
  <g id="Group_9438" data-name="Group 9438">
    <g id="Group_9437" data-name="Group 9437">
      <g id="Group_9436" data-name="Group 9436">
        <path id="Path_886" data-name="Path 886" d="M16,0A16,16,0,1,1,0,16,16.008,16.008,0,0,1,16,0" fill="#26a4e2" fill-rule="evenodd"/>
        <path id="Path_887" data-name="Path 887" d="M13.278,18.039l-.264,3.829a.918.918,0,0,0,.739-.369l1.775-1.745,3.68,2.771c.674.387,1.15.183,1.331-.638l2.415-11.638c.215-1.027-.36-1.428-1.018-1.176L7.743,14.663c-.969.386-.954.941-.165,1.193l3.629,1.16,8.429-5.424c.4-.27.757-.12.46.15l-6.818,6.3Z" fill="#fff" fill-rule="evenodd"/>
      </g>
    </g>
  </g>
</svg>
