<svg id="svgexport-13" xmlns="http://www.w3.org/2000/svg" width="32" height="32" viewBox="0 0 32 32">
  <g id="Group_9435" data-name="Group 9435">
    <g id="Group_9434" data-name="Group 9434">
      <g id="Group_9433" data-name="Group 9433">
        <path id="Path_884" data-name="Path 884" d="M16,0A16,16,0,1,0,32,16,16,16,0,0,0,16,0" fill="#1da1f2" fill-rule="evenodd"/>
        <path id="Path_885" data-name="Path 885" d="M24.44,10.857a8.066,8.066,0,0,1-.86.956c-.689.683-.725.757-.725,1.329a12.778,12.778,0,0,1-.836,3.725,10.794,10.794,0,0,1-4.091,4.82,10.361,10.361,0,0,1-8.058.919A9.379,9.379,0,0,1,7.5,21.513a3.606,3.606,0,0,1,1.007-.1,6.884,6.884,0,0,0,3.292-.919l.663-.4-.761-.26A3.72,3.72,0,0,1,9.4,17.8c-.073-.261-.048-.275.639-.275l.711-.011-.6-.286a3.975,3.975,0,0,1-1.683-1.59,4.48,4.48,0,0,1-.442-1.664,1.461,1.461,0,0,1,.578.137c.847.311.958.236.466-.286a3.589,3.589,0,0,1-.761-3.676l.209-.6.811.807a9.981,9.981,0,0,0,5.846,2.881l.615.074-.037-.609a3.556,3.556,0,0,1,2.4-3.577,4.194,4.194,0,0,1,2.149-.05,4.97,4.97,0,0,1,1.044.546l.6.41.663-.212A6.847,6.847,0,0,0,23.688,9.4c.209-.112.393-.174.393-.137a3.621,3.621,0,0,1-.835,1.329c-.518.559-.369.609.674.236.629-.207.643-.207.52.029" fill="#fff" fill-rule="evenodd"/>
      </g>
    </g>
  </g>
</svg>
