<svg id="Page-1" xmlns="http://www.w3.org/2000/svg" width="32" height="32" viewBox="0 0 32 32">
  <g id="Icon-set" transform="translate(-731 -1484)">
    <g id="Icon-_-Social-Media-_-Link-_-Circle" data-name="Icon-/-Social-Media-/-Link-/-Circle" transform="translate(731 1484)">
      <path id="Path" d="M16,0A16,16,0,1,0,32,16,16,16,0,0,0,16,0Z" fill="#151515" fill-rule="evenodd"/>
      <path id="Combined-Shape" d="M14.788,12.8a3.363,3.363,0,0,1,1.918.608,3.522,3.522,0,0,1,.6.52,1.154,1.154,0,0,1,0,1.546.985.985,0,0,1-1.428,0,1.444,1.444,0,0,0-2.155,0h0l-3.245,3.51a1.749,1.749,0,0,0,0,2.335,1.445,1.445,0,0,0,2.157,0h0l1.918-2.079a.24.24,0,0,1,.277-.06,3.993,3.993,0,0,0,1.626.341h.1a.265.265,0,0,1,.255.274.287.287,0,0,1-.075.2h0l-2.668,2.888A3.4,3.4,0,0,1,11.555,24,3.713,3.713,0,0,1,8,20.147a4.018,4.018,0,0,1,1.04-2.718h0l3.232-3.5A3.411,3.411,0,0,1,14.788,12.8ZM17.93,9.128a3.367,3.367,0,0,1,5.029,0,4.08,4.08,0,0,1,0,5.446h0l-3.233,3.5a3.5,3.5,0,0,1-1.648,1.012h-.028l-.147.033-.081.017-.175.028h-.086c-.066,0-.125.014-.18.016h0l-.152.019h-.193a3.271,3.271,0,0,1-.378-.038c-.1-.019-.206-.041-.307-.069h0l-.15-.044c-.053-.017-.109-.036-.162-.058s-.109-.041-.163-.066-.107-.047-.16-.074a3.539,3.539,0,0,1-1.016-.77,1.162,1.162,0,0,1,0-1.551.984.984,0,0,1,1.427,0,1.443,1.443,0,0,0,2.154,0h0l.833-.9.02-.025,2.382-2.577a1.75,1.75,0,0,0,0-2.335,1.444,1.444,0,0,0-2.156,0h0l-1.912,2.068a.24.24,0,0,1-.277.061,3.982,3.982,0,0,0-1.623-.344h-.094a.254.254,0,0,1-.239-.168.292.292,0,0,1,.053-.3h0Z" fill="#fff" fill-rule="evenodd"/>
    </g>
  </g>
</svg>
