<svg id="svgexport-15" xmlns="http://www.w3.org/2000/svg" width="32" height="32" viewBox="0 0 32 32">
  <g id="Group_9441" data-name="Group 9441">
    <g id="Group_9440" data-name="Group 9440">
      <g id="Group_9439" data-name="Group 9439">
        <path id="Path_888" data-name="Path 888" d="M16,0A16,16,0,1,1,0,16,16.008,16.008,0,0,1,16,0" fill="#4dcb5b" fill-rule="evenodd"/>
        <path id="Path_889" data-name="Path 889" d="M16,8a7.99,7.99,0,0,0-8,8,9.465,9.465,0,0,0,1.532,4.766L8.6,23.66l2.978-1.022A8.592,8.592,0,0,0,16,24a7.99,7.99,0,0,0,8-8A8.1,8.1,0,0,0,16,8Zm4.426,11.66a3.261,3.261,0,0,1-2.3.766,9.357,9.357,0,0,1-3.66-1.788A13.31,13.31,0,0,1,11.83,15.4a2.3,2.3,0,0,1-.34-1.617,2.567,2.567,0,0,1,.936-1.872,1.046,1.046,0,0,1,.425-.17h.766s.17,0,.255.255c.085.17.681,1.7.766,1.787,0,.085.17.426,0,.681a3.875,3.875,0,0,0-.766.6.329.329,0,0,0,0,.425,10.994,10.994,0,0,0,1.277,1.617,5.007,5.007,0,0,0,1.872,1.107c.426.17.51-.085.6-.256a8.249,8.249,0,0,1,.6-.766.379.379,0,0,1,.51-.085c.34.17,1.873.851,1.873.851s.17,0,.17.256a1.757,1.757,0,0,1-.34,1.447Z" fill="#fff" fill-rule="evenodd"/>
      </g>
    </g>
  </g>
</svg>
